<svg xmlns="http://www.w3.org/2000/svg" width="152" height="17" viewBox="0 0 224 24">
	<path d="M218.489,12.828 L223.969,20.174 L222.604,20.174 L217.198,12.852 L215.054,12.852 L215.054,20.174 L213.935,20.174 L213.935,4.331 L218.367,4.331 C220.876,4.331 223.213,5.336 223.213,8.420 C223.213,10.820 222.093,12.828 218.489,12.828 ZM218.489,5.237 L215.054,5.237 L215.054,11.946 L218.513,11.946 C221.265,11.946 222.044,10.403 222.044,8.420 C222.044,6.265 220.753,5.237 218.489,5.237 ZM195.595,4.331 L203.973,4.331 L203.973,5.237 L196.715,5.237 L196.715,11.530 L203.461,11.530 L203.461,12.436 L196.715,12.436 L196.715,19.267 L204.192,19.267 L204.192,20.174 L195.595,20.174 L195.595,4.331 ZM179.666,20.174 L176.476,20.174 L176.476,4.331 L179.666,4.331 C185.291,4.331 187.191,6.511 187.191,12.192 C187.191,17.895 185.073,20.174 179.666,20.174 ZM179.666,5.237 L177.595,5.237 L177.595,19.267 L179.885,19.267 C184.221,19.267 186.023,16.770 186.023,12.216 C186.023,7.294 184.610,5.237 179.666,5.237 ZM165.417,4.331 L166.539,4.331 L166.539,20.174 L165.417,20.174 L165.417,4.331 ZM151.730,13.245 L148.514,13.245 L148.514,20.174 L147.394,20.174 L147.394,4.331 L151.462,4.331 C154.677,4.331 156.553,5.532 156.553,8.714 C156.553,11.824 154.897,13.245 151.730,13.245 ZM151.414,5.237 L148.514,5.237 L148.514,12.338 L151.534,12.338 C154.093,12.338 155.384,11.554 155.384,8.714 C155.384,5.996 153.971,5.237 151.414,5.237 ZM137.823,16.060 C137.823,19.439 135.388,20.491 132.489,20.491 C131.125,20.491 129.834,20.173 128.495,19.807 L128.934,18.778 C130.102,19.218 131.223,19.586 132.513,19.586 C134.339,19.586 136.654,18.901 136.654,16.110 C136.654,13.783 134.730,13.048 132.708,12.338 C130.614,11.604 128.495,10.747 128.495,8.004 C128.495,5.091 130.784,4.013 133.682,4.013 C134.753,4.013 136.044,4.258 137.335,4.699 L136.896,5.727 C135.996,5.336 135.046,4.920 133.536,4.920 C131.417,4.920 129.663,5.653 129.663,8.004 C129.663,9.890 131.321,10.575 133.147,11.211 C135.388,11.996 137.823,12.902 137.823,16.060 ZM109.181,4.331 L118.216,4.331 L118.216,6.217 L111.616,6.217 L111.616,11.040 L117.705,11.040 L117.705,12.926 L111.616,12.926 L111.616,18.288 L118.436,18.288 L118.436,20.174 L109.181,20.174 L109.181,4.331 ZM96.247,18.655 C97.514,18.655 98.147,18.571 99.414,18.029 L100.558,19.806 C99.170,20.296 97.928,20.541 96.271,20.541 C91.206,20.541 89.355,17.088 89.355,12.191 C89.355,7.784 91.036,3.964 96.394,3.964 C97.758,3.964 99.194,4.185 100.388,4.576 L99.243,6.347 C98.221,5.881 97.564,5.850 96.394,5.850 C92.936,5.850 91.864,8.494 91.864,12.167 C91.864,16.060 92.936,18.655 96.247,18.655 ZM78.516,4.331 L80.952,4.331 L80.952,20.174 L78.516,20.174 L78.516,4.331 ZM67.094,20.174 L62.077,13.342 L60.932,13.342 L60.932,20.174 L58.496,20.174 L58.496,4.331 L63.903,4.331 C66.411,4.331 69.091,5.213 69.091,8.739 C69.091,10.967 68.067,12.951 64.902,13.268 L70.041,20.174 L67.094,20.174 ZM66.607,8.739 C66.607,7.147 65.730,6.217 64.025,6.217 L60.932,6.217 L60.932,11.457 L64.050,11.457 C65.900,11.457 66.607,10.281 66.607,8.739 ZM44.371,13.734 L41.496,13.734 L41.496,20.174 L39.060,20.174 L39.060,4.331 L44.102,4.331 C47.317,4.331 49.533,5.482 49.533,8.959 C49.533,12.387 47.536,13.734 44.371,13.734 ZM44.053,6.217 L41.496,6.217 L41.496,11.848 L44.175,11.848 C45.904,11.848 47.049,11.212 47.049,8.959 C47.049,6.608 45.734,6.217 44.053,6.217 ZM8.991,23.610 C10.075,23.461 11.206,22.957 11.977,21.662 C13.547,18.873 11.492,10.215 11.489,6.297 C11.485,4.937 11.700,3.000 13.449,2.157 C15.167,1.333 16.860,1.310 18.199,1.801 C19.010,2.306 19.763,2.908 20.438,3.603 C21.042,4.636 21.106,5.944 20.344,7.282 C18.618,10.369 14.839,10.876 12.493,10.902 C15.828,11.313 19.216,10.593 21.084,8.472 C21.785,7.682 22.131,6.710 22.084,5.725 C22.492,6.397 22.840,7.120 23.118,7.890 C25.372,14.114 22.186,20.990 15.993,23.251 C13.658,24.105 11.230,24.180 8.991,23.610 ZM16.227,1.117 C14.755,1.081 13.402,1.183 12.080,1.908 C10.025,3.074 9.562,4.413 9.653,6.510 C9.653,6.510 9.717,8.268 9.739,8.785 C10.655,20.425 11.353,21.850 9.720,22.837 C7.916,24.048 0.855,20.430 3.244,16.040 C4.368,13.929 5.757,12.821 9.176,11.545 C7.644,11.764 3.441,12.689 1.783,16.903 C1.677,17.277 1.614,17.633 1.586,17.969 C1.246,17.376 0.951,16.750 0.712,16.085 C-1.546,9.864 1.644,2.983 7.836,0.722 C10.996,-0.433 14.326,-0.161 17.129,1.209 C16.815,1.154 16.511,1.122 16.227,1.117 Z"></path>
</svg>