<?xml version="1.0" encoding="UTF-8" standalone="no"?>
<!-- Created with Inkscape (http://www.inkscape.org/) -->

<svg
   xmlns:dc="http://purl.org/dc/elements/1.1/"
   xmlns:cc="http://creativecommons.org/ns#"
   xmlns:rdf="http://www.w3.org/1999/02/22-rdf-syntax-ns#"
   xmlns:svg="http://www.w3.org/2000/svg"
   xmlns="http://www.w3.org/2000/svg"
   xmlns:sodipodi="http://sodipodi.sourceforge.net/DTD/sodipodi-0.dtd"
   xmlns:inkscape="http://www.inkscape.org/namespaces/inkscape"
   width="48"
   height="48"
   viewBox="0 0 12.7 12.7"
   version="1.1"
   id="svg859"
   inkscape:version="0.92.2 5c3e80d, 2017-08-06"
   sodipodi:docname="psLogo.svg">
  <defs
     id="defs853" />
  <sodipodi:namedview
     id="base"
     pagecolor="#ffffff"
     bordercolor="#666666"
     borderopacity="1.0"
     inkscape:pageopacity="0.0"
     inkscape:pageshadow="2"
     inkscape:zoom="3.0819912"
     inkscape:cx="134.77684"
     inkscape:cy="82.781861"
     inkscape:document-units="mm"
     inkscape:current-layer="layer1"
     showgrid="false"
     units="px"
     inkscape:window-width="1680"
     inkscape:window-height="1005"
     inkscape:window-x="0"
     inkscape:window-y="1"
     inkscape:window-maximized="1" />
  <metadata
     id="metadata856">
    <rdf:RDF>
      <cc:Work
         rdf:about="">
        <dc:format>image/svg+xml</dc:format>
        <dc:type
           rdf:resource="http://purl.org/dc/dcmitype/StillImage" />
        <dc:title></dc:title>
      </cc:Work>
    </rdf:RDF>
  </metadata>
  <g
     inkscape:label="Layer 1"
     inkscape:groupmode="layer"
     id="layer1"
     transform="translate(0,-284.3)">
    <path
       id="path2"
       style="stroke-width:0.17953868; fill:#ddd;"
       d="m 8.6010697,284.89299 c -0.7795904,-0.0177 -1.4961574,0.0351 -2.1963052,0.41891 -1.0883553,0.61752 -1.333568,1.32669 -1.2853732,2.43728 0,0 0.033894,0.93107 0.045546,1.20487 0.4851273,6.1647 0.8547966,6.91939 -0.01003,7.44214 -0.9554227,0.64135 -4.69501911,-1.27479 -3.4297731,-3.5998 0.5952838,-1.118 1.3309158,-1.70481 3.1416638,-2.38059 -0.8113666,0.11592 -3.0373304,0.60586 -3.91542852,2.83764 -0.0561355,0.19794 -0.089499,0.38664 -0.10433641,0.56457 -0.18005915,-0.31404 -0.33630711,-0.6456 -0.46288244,-0.99778 -1.19586834,-3.29473 0.49359932,-6.93898 3.77296227,-8.13645 1.6735792,-0.61171 3.437189,-0.46764 4.9216944,0.25782 -0.1663123,-0.0295 -0.3272975,-0.046 -0.477711,-0.0486 z m -3.8322805,11.91258 c 0.5741008,-0.0788 1.1730927,-0.34584 1.5814235,-1.03169 0.8314931,-1.47707 -0.2568737,-6.06248 -0.2584366,-8.1375 -0.00209,-0.72029 0.1117397,-1.74614 1.038042,-2.19259 0.9098771,-0.43641 1.8065086,-0.44859 2.5156633,-0.18851 0.4295166,0.26756 0.8283126,0.58629 1.1858036,0.95437 0.319885,0.54708 0.353782,1.23983 -0.04979,1.94845 -0.9141129,1.63493 -2.9155223,1.90342 -4.1579923,1.91719 1.766258,0.2177 3.5605873,-0.16371 4.5499073,-1.28696 0.371257,-0.41838 0.554505,-0.93316 0.529612,-1.45484 0.216076,0.3559 0.400389,0.73882 0.547619,1.14661 1.193751,3.29631 -0.493599,6.93794 -3.7734932,8.13541 -1.2366475,0.45227 -2.5225484,0.492 -3.7083517,0.19027 z"
       inkscape:connector-curvature="0" />
  </g>
</svg>
