<svg xmlns="http://www.w3.org/2000/svg" viewBox="0 0 2036.56 2093.55" width="2370px" height="2430px" class="ng-scope">
    <path fill="#2161a3" d="M443.14,
    1461.94a5.4,5.4,0,0,0,2.84-.77,6.17,6.17,0,0,0,2.57-6.74l202.58-44.37,5.68-1.24.44,1.15L398,1553.15a7.5,7.5,0,0,0-2.34-2.32L440,1461.12a6.69,6.69,0,0,0,3.11.82m292.28-112.77a5.71,5.71,
    0,0,0,3-.83,6.27,6.27,0,0,0,2.79-6.21l117.23-10.51,76.28-6.83.23.59-265.48,79.46-.49-1.28-.61-.68,62-56.05a7.16,7.16,0,0,0,5.08,2.34m-72.95,50.77-8-52.1-3.69-24a6.3,6.3,0,0,0,
    5.46-5l72.11,21.88a7.29,7.29,0,0,0,1,4.92l.57.64-45,40.72-17,15.33a7.23,7.23,0,0,0-5.23-2.43h-.21m-190.6-139.66a6.17,6.17,0,0,0,3.31-.88,6.52,6.52,0,0,0,1.69-1.62l180.51,145a7.13,7.13,
    0,0,0-.82,5.4L448.3,1453.78a6.54,6.54,0,0,0-.6-1.55,7,7,0,0,0-4-3.13l26.7-189a8.26,8.26,0,0,0,1.49.14m346.92,2.48a5.72,5.72,0,0,0,3.06-.84,5.8,5.8,0,0,0,2.14-2.47l10.4,5.74,100.71,
    55.67a6.73,6.73,0,0,0-.45,3.25l-193.51,17.34a7.47,7.47,0,0,0-.93-2.4l-.85-1,21.2-22,53.37-55.39a7.13,7.13,0,0,0,4.86,2.06m-90.31,77.35-32.61-9.89-39.5-12a7.88,7.88,0,0,
    0-.45-3.81l156.33-56.1.34.88.87,1-74.57,77.4a7,7,0,0,0-4.77-2,5.57,5.57,0,0,0-3,.83,6,6,0,0,0-2.63,3.72M438.65,1450l-66-85.67L335.5,1316.1a6.73,6.73,0,0,0,
    1.55-7.57l127.68-52.8.27.7a8.15,8.15,0,0,0,4.72,3.65l-22.39,158.5L443,1449a8.67,8.67,0,0,0-1.25-.12,5.36,5.36,0,0,0-2.84.76l-.29.28m219.15-47.67L540.41,1308l-63.13-50.71a6.7,6.7,0,0,0,
    .71-1.75l80.52,28.79,83.74,29.93a8.07,8.07,0,0,0,1,5.83,7.81,7.81,0,0,0,6.55,3.78h.27l11.7,76.07a5.49,5.49,0,0,0-4,2.35m-15.3-88.63-164.26-58.72a8.14,8.14,0,0,0-.94-5.58l18.42-11.22,
    93.34-56.86a6.72,6.72,0,0,0,5.49,3,6.41,6.41,0,0,0,1.74-.24l49.91,125.45-.93.32a6.52,6.52,0,0,0-2.77,3.8m4.31-4.32L630,1267.13l-33.12-83.26.79-.27a5.78,5.78,0,0,0,2.45-3.38l211.45,
    73.68a7.21,7.21,0,0,0,.41,3.76l-43.6,15.65-112.73,40.46-.38-1a7.63,7.63,0,0,0-6.44-3.74,6.71,6.71,0,0,0-2,.29M836.05,1143.9a6.43,6.43,0,0,0,2.9-.65l36.22,64.19,62.27,110.38a5.93,5.93,
    0,0,0-2.1,2.43l-111.1-61.41a7.13,7.13,0,0,0-.56-6.38,7.57,7.57,0,0,0-4.24-3.31l15.29-105.38a6.56,6.56,0,0,0,1.32.13m102,173.7L839.56,1143a6.91,6.91,0,0,0,3.06-6.42l126.44-2.45a8.06,
    8.06,0,0,0,1.06,3.1,8,8,0,0,0,4.26,3.38L942.1,1317.15a5.74,5.74,0,0,0-1.36-.16,6.16,6.16,0,0,0-2.71.61m-461.09-68.85a8.83,8.83,0,0,0-1.22-1.36l78.43-100,23-29.31a7.09,7.09,0,0,0,4.35,
    1.58,5.24,5.24,0,0,0,.56,0l10.43,51.64a5.62,5.62,0,0,0-1.92.66c-2.82,1.72-3.59,5.55-1.87,8.71l-111.76,68.07m-146.66,55L304,1115.2a6.15,6.15,0,0,0,2.52-.86,5.94,5.94,0,0,0,
    1.4-1.34l54.88,47.13L465,1248a7.6,7.6,0,0,0-.55,7.13l-127.68,52.8-.24-.62a7.3,7.3,0,0,0-6.17-3.54h-.11M976.69,1141a6.07,6.07,0,0,0,3.24-.87c2.9-1.77,3.77-5.52,2.39-8.85l28.93-12.76,
    26.48-11.68.19.5a7.78,7.78,0,0,0,2.58,2.5l-96.83,207.94-.93-.47L975,1140.79a7.18,7.18,0,0,0,1.66.2m-164.85,112.3L664.9,1202.1l-64.51-22.49a7.09,7.09,0,0,0-1-5l-1-1.16,66.74-76.94a6.68,
    6.68,0,0,0,4.29,1.69,5.5,5.5,0,0,0,2.92-.8l.67-.65,52.2,57.4,88,96.8a6.12,6.12,0,0,0-1.38,2.39m1.84-2.83L673.47,1096.25a5.73,5.73,0,0,0,1.44-2.63l94.14,25.28,59.25,15.93a8.15,8.15,0,0,
    0,5.77,8.88l-15.29,105.37a7.74,7.74,0,0,0-1.36-.13,5.57,5.57,0,0,0-3,.8l-.74.71m-220.55-79.28-4.85-24-5.59-27.69a5.72,5.72,0,0,0,2.06-.7,6.58,6.58,0,0,0,2.7-7.37l18.11-4.33,
    57.53-13.77.56,1.45,1,1.13-29,33.41-37.76,43.51a6.62,6.62,0,0,0-4.32-1.7h-.47M865.6,1070.79a6.19,6.19,0,0,0,3.26-.89,6.46,6.46,0,0,0,2.17-2.3l49.47,31.32,49.2,31.16a7.18,7.18,0,0,
    0-.64,3.39l-126.44,2.45a8.25,8.25,0,0,0-1.1-3.2,8,8,0,0,0-3.09-2.82l24-59.83a7.82,7.82,0,0,0,3.15.72m-569.57,35-78.95-22.67-14.21-4.08a6.89,6.89,0,0,0-.77-4.12l51.17-29.65a7.79,7.79,0,
    0,0,6.37,3.65,6.42,6.42,0,0,0,3.3-.89l24.38,37.18,11.11,16.94a6.35,6.35,0,0,0-2.4,3.64M465.49,1247.5l-30.36-26.07L308.36,1112.56a7.33,7.33,0,0,0,0-8l-.29-.33,59.5-46.71L388.64,
    1041a7.41,7.41,0,0,0,5.63,2.8,6.52,6.52,0,0,0,1.64-.2l72.3,202-1.21.42a6.51,6.51,0,0,0-1.51,1.45m3.33-2.07-72.3-202,1.15-.38a6.33,6.33,0,0,0,2.6-3.44l174.2,70.77a7.44,7.44,0,0,0,.88,
    5.72,7.56,7.56,0,0,0,1.33,1.48L475.25,1246.87a7.38,7.38,0,0,0-4.6-1.67,7.12,7.12,0,0,0-1.83.23M299,1101.77l-1.43-2.21-33.72-52.27,1.24-1.27a6.5,6.5,0,0,0,1.18-4.37l21-.77,
    99.51-3.69a8.1,8.1,0,0,0,1.07,3l.31.34-80.55,63.23A7.43,7.43,0,0,0,302,1101a6.12,6.12,0,0,0-3.06.81m421.11-77.48a6.36,6.36,0,0,0,3.31-.91l1-.93,68.36,70.39,37.22,38.33a6.88,6.88,0,0,
    0-1.56,3L675,1093a7,7,0,0,0-.94-4.48,7.33,7.33,0,0,0-1.51-1.67l43.31-63.92a7.47,7.47,0,0,0,4.23,1.41m110.31,106.44-11.47-11.8L724.81,1022a6.69,6.69,0,0,0,1.38-2.57l131.49,41.91a7.88,
    7.88,0,0,0,4.16,8.41l-24,59.83a7.67,7.67,0,0,0-3.16-.72,6.11,6.11,0,0,0-3.28.9l-1,1m-243.18-19.9a7.38,7.38,0,0,0-.62-1.59,7.47,7.47,0,0,0-2.69-2.53l48.36-112.86a7.19,7.19,0,0,0,3,.72,
    6.66,6.66,0,0,0,1.4-.15l11.62,35.47,18.22,55.66-1.15.39a6.12,6.12,0,0,0-2.52,6.78l-75.63,18.11m79.91-25.49-29.84-91.13,1.34-.46a6.41,6.41,0,0,0,2.72-3.75l7.68,2.69,63.52,22.19a7.88,
    7.88,0,0,0,1.05,5.64,7.79,7.79,0,0,0,1.73,1.92l-.7,1L672,1086.37a6.3,6.3,0,0,0-3.59-1.17,6.39,6.39,0,0,0-1.3.14m190.75-24.62-131.49-41.91a7.86,7.86,0,0,0-.53-4l88.73-35.52.27.71a7.33,
    7.33,0,0,0,6.17,3.6,6.42,6.42,0,0,0,2.58-.51L861,1056.57l-.27.09a6.64,6.64,0,0,0-2.89,4.06m116.64,65.68L936.19,972.89a6.12,6.12,0,0,0,1.83-.63l.44-.42,100.47,126.55a6.89,6.89,0,0,
    0-1.45,7.79l-55.41,24.44-.2-.52a7.68,7.68,0,0,0-6.42-3.76,7.3,7.3,0,0,0-.94.06m-4.56,3.07L871.27,1067a7.6,7.6,0,0,0-2.1-9.25l35.88-50.47,25.3-35.58a7.3,7.3,0,0,0,4.29,1.46,6,6,0,0,0,
    .94-.06l38.32,153.52a6.08,6.08,0,0,0-1.84.63,6.25,6.25,0,0,0-2.11,2.23m-108.31-73.11-31.45-61.77-6-11.75.24-.09a6.62,6.62,0,0,0,2.94-6.59l99.85-9.34a8.09,8.09,0,0,0,1,2.58,8,8,0,0,0,
    1.61,1.8l-61.17,86a7.2,7.2,0,0,0-4.27-1.44,6.77,6.77,0,0,0-2.76.55m177.76,41.58L1003,1052.15,938.92,971.4a6.89,6.89,0,0,0,2.1-6.19l17-2.36,21.7-3a7.48,7.48,0,0,0,.81,2.13,7,7,0,0,0,
    5.88,3.42,6.51,6.51,0,0,0,1.85-.26l18.72,47.12,33.77,85-.88.3-.42.4m180.77-137.6a6.16,6.16,0,0,0,3.3-.91,6.37,6.37,0,0,0,1.92-1.84l95.54,69.63a6.46,6.46,0,0,0-.53,4.73L1050,
    1101.85a7.42,7.42,0,0,0-.58-1.52l-.49-.54,165.57-142.17a7.79,7.79,0,0,0,5.69,2.72m101.07,66.3L1225.69,957a7.16,7.16,0,0,0,.66-1.62l65,20.37,12.78,4a7.83,7.83,0,0,0,1.06,5.39,7.53,7.53,
    0,0,0,6.35,3.7,6.58,6.58,0,0,0,1.4-.14l11.15,36-1.25.42a5.64,5.64,0,0,0-1.62,1.57m-746.52,83.13-97.26-39.51L400.52,1039a7.8,7.8,0,0,0-.87-5.87l101.19-66.42,25-16.41a7,7,0,0,0,7.06,
    3.05L578.65,1106l-1.45.5a6,6,0,0,0-2.48,3.27M1041.3,1097,992,972.85l-3.16-8,.83-.28a6.25,6.25,0,0,0,2.81-5.84l220-5.39a8.15,8.15,0,0,0,1.09,3.12l.52.59L1143.08,1018l-94.63,81.26a7.23,
    7.23,0,0,0-5.3-2.5,6.17,6.17,0,0,0-1.85.26m-462,8.77L533.5,953.14l1.46-.5a6.21,6.21,0,0,0,2.55-3.37l6.67,2.64L627.89,985a7.74,7.74,0,0,0,.94,5.89,7.83,7.83,0,0,0,2.82,2.65l-9.91,
    23.13-38.45,89.72a6.91,6.91,0,0,0-2.92-.69,5.3,5.3,0,0,0-1.12.1m133.54-91.53-35.38-12.36-35.83-12.52a7.87,7.87,0,0,0-1-5.56l38-25.27,37.28-24.8a7.2,7.2,0,0,0,4.75,3l-1.3,73-.54,0a6,6,
    0,0,0-3.2.8,6.41,6.41,0,0,0-2.73,3.76m8.92-77.47a5.87,5.87,0,0,0,3.08-.76,6.08,6.08,0,0,0,2.35-2.95l32.39,15.15,54.57,25.54a7.33,7.33,0,0,0,.23,4.81L778.41,993l-52.81,
    21.14-.29-.74a7.64,7.64,0,0,0-5.4-3.58l1.31-73,.49,0M266.25,1041a7.65,7.65,0,0,0-1-2.78l-.36-.39L401.56,926.05a7.46,7.46,0,0,0,3.75,2.46l-11.12,100.92a8.52,8.52,0,0,0-1.24-.1,5.84,
    5.84,0,0,0-3.15.83,6.72,6.72,0,0,0-3,6.35l-112,4.15-8.49.31m140.9-112.3a5.74,5.74,0,0,0,3.05-.8,6.32,6.32,0,0,0,2.9-4.56L524.42,945.4a7.48,7.48,0,0,0,1,4.34l-28.32,18.59-97.88,
    64.26a7.79,7.79,0,0,0-4.36-3.1l2.28-20.76L406,928.57a7.85,7.85,0,0,0,1.19.1m407.2,44.5-18.51-8.65-68.46-32a7.22,7.22,0,0,0-.28-4.83l58.57-24.88.22.56a7.25,7.25,0,0,0,6.1,3.56,6.85,
    6.85,0,0,0,1.8-.24L811,951.92l6.79,17.9-1,.34a6,6,0,0,0-2.4,3m126.48-8.63a8.21,8.21,0,0,0-.88-2.27,7.82,7.82,0,0,0-2.39-2.43l30.2-58.67a7.6,7.6,0,0,0,3.59,1,4.48,4.48,0,0,0,
    .73-.05L984,952a5.92,5.92,0,0,0-1.76.6,6.4,6.4,0,0,0-2.8,6.57l-38.65,5.38m383.89,59.9-11.16-35.94,1.46-.5c3.23-2,4.09-6.45,1.92-10a7.79,7.79,0,0,0-3.58-3l6.76-23.05,
    17.08-58.24.76.2-11.39,130.54c-.3,0-.6-.06-.89-.07a5.2,5.2,0,0,0-1,.09m-20.39-45.33-40.65-12.73-37.15-11.64a8.05,8.05,0,0,0-.86-4.91l4.73-2.62L1333,890.31a8,8,0,0,0,3.62,3.06L1323,
    939.7l-10.26,35a7,7,0,0,0-2.34-.41,6.07,6.07,0,0,0-3.26.89,6.45,6.45,0,0,0-2.82,4M849.09,884a6.21,6.21,0,0,0,3.32-.91l1-.91,32.72,34.07,42.68,44.45a6.94,6.94,0,0,0-1.6,5.39l-99.85,
    9.35a7.85,7.85,0,0,0-1-2.52,7.71,7.71,0,0,0-3.59-3l24.06-86.29a7.4,7.4,0,0,0,2.27.38m92,1.81a5.45,5.45,0,0,0,2.92-.75,5.85,5.85,0,0,0,2.16-2.59l17.93,9.27a7.69,7.69,0,0,0,.67,6.63,
    8.05,8.05,0,0,0,2.41,2.45L946.23,941.5l-9.28,18a7,7,0,0,0-2-.82l2.23-30.88,3-42a8.46,8.46,0,0,0,.87.05M818.35,969.61,806,937l-11.6-30.59,1-.33c2.75-1.69,3.6-5.21,
    2.37-8.38l44.51-18.2.27.7a7.92,7.92,0,0,0,3.7,3.11l-2.67,9.59-21.38,76.7a6,6,0,0,0-1.86-.3,7.17,7.17,0,0,0-1.95.27m115.93-11-1.3-.11L917.53,880a6.37,6.37,0,0,0,2.16-.74,6.44,6.44,0,0,
    0,2.92-4.28l11.31,2.86a7.3,7.3,0,0,0,1,4.58,7.19,7.19,0,0,0,4.62,3.29l-5.25,72.91m-5.06,1.65-75.4-78.53a6.91,6.91,0,0,0,1.63-5.18L909,873.67a8,8,0,0,0,1.06,2.81,7.5,7.5,0,0,0,6.3,
    3.68l.55,0,15.45,78.51a6,6,0,0,0-2.19.75l-.94.9M628.14,984.39,582.89,966.5l-45.14-17.84a7.51,7.51,0,0,0-.91-5.73,8.05,8.05,0,0,0-1.91-2.14l15-24.89,33.71-55.75a7.32,7.32,0,0,0,3.94,
    1.19,6.45,6.45,0,0,0,1.75-.21l27.51,77.19,15,42.19-1.16.4a6.4,6.4,0,0,0-2.62,3.48m4.38-4.09L595.29,875.82,590,860.92l1.22-.42a6.39,6.39,0,0,0,2.34-2.66l121.31,68.9a7.24,7.24,0,0,0,.51,
    6.47l-75.24,50.08a7.45,7.45,0,0,0-5.94-3.19,7.18,7.18,0,0,0-1.66.2M255.38,1035l-51.55-71.34-2.28-3.15a7,7,0,0,0,1.23-9.06,8.07,8.07,0,0,0-1.89-2.12l18.45-30.38,38.92-64.09a6.71,6.71,0,
    0,0,2.68,1l-.78,94.75-.69,83.78a7,7,0,0,0-1.12-.09,6.14,6.14,0,0,0-3,.71M262,855.89a5.65,5.65,0,0,0,3-.75,5.79,5.79,0,0,0,2.22-2.7L400,918.83a7.35,7.35,0,0,0,.68,6.27l.38.42L269.57,
    1033.07l-5.15,4.21-1.18-1.24a7.77,7.77,0,0,0-3.12-1.64l1.48-178.52H262m262.44,88.83L413.1,922.63a7.53,7.53,0,0,0-1-4.45,8.15,8.15,0,0,0-1.56-1.74l53.85-75.56a6.58,6.58,0,0,0,3.82,1.29,
    6.14,6.14,0,0,0,2.68-.61l16,28,40.38,70.68a6.37,6.37,0,0,0-2.83,4.5m3.42-4.75-56.38-98.66a6,6,0,0,0,2.66-4.49L579.89,853a8.1,8.1,0,0,0,1.11,4.48,8.39,8.39,0,0,0,2.07,2.31l-48.74,
    80.64a7.07,7.07,0,0,0-3.72-1.13,6.3,6.3,0,0,0-2.77.63m199-13-.22-.57a7.79,7.79,0,0,0-2.26-2.31l8.47-16.37,37-71.42a7.19,7.19,0,0,0,3.44,1,6.08,6.08,0,0,0,1-.07l15.17,55.88a6,6,0,0,
    0-1.63.55c-2.77,1.7-3.61,5.27-2.34,8.46l-20,8.49L726.85,927M790,892.91l-3.49-12.84-11.68-43a5.88,5.88,0,0,0,1.65-.57,6.11,6.11,0,0,0,2.09-2.26l31.07,19L842,873.09a7.47,7.47,0,0,0,0,
    5.8L814.7,890.05l-17.22,7.05-.25-.65a7.35,7.35,0,0,0-6.18-3.62,7.42,7.42,0,0,0-1,.08m428.69-68.28a6.21,6.21,0,0,0,3.32-.82,6.34,6.34,0,0,0,2.27-2.58l108.1,62a7.66,7.66,0,0,0,.32,
    6.43l-107.3,59.53a7.8,7.8,0,0,0-5.69-3.63l-1.06-98.37-.24-22.57h.28m-376.4,47.85-63.47-38.89a7.29,7.29,0,0,0-.09-5.94l.73-.35,24.12-11.48.12.3a7.3,7.3,0,0,0,6.12,3.6,6.24,6.24,0,0,0,
    3-.73l26.41,43.18,5,8.18a6.17,6.17,0,0,0-1.94,2.13M1339.72,894a6,6,0,0,0,3.23-.84c3-1.82,3.86-5.69,2.4-9.1l144.43-65.49.16.41a7.9,7.9,0,0,0,1.3,1.46l-161.38,205.28a6.6,6.6,0,0,
    0-2.63-1.26l6.46-74.1,4.92-56.44a8.29,8.29,0,0,0,1.11.08M934,877.19l-11.33-2.86a7.67,7.67,0,0,0-1-4.89,7.52,7.52,0,0,0-5.63-3.55l-1.66-64.41,1.3-.11L938,872.75l-1.29.44a6.08,6.08,0,0,
    0-2.74,4m4.64-4.65-19.21-61.2-3.19-10.17.82-.28L942.62,846l24,42.35a6.31,6.31,0,0,0-2.32,2.8l-10.51-5.43-7.42-3.83a7.12,7.12,0,0,0-6.51-9.49,6.85,6.85,0,0,0-1.28.12m-83.15,3.36a8.07,
    8.07,0,0,0-1.09-2.88,7.56,7.56,0,0,0-1.38-1.54l42.49-53.35L910,799.94a7,7,0,0,0,3.69,1.48l.28,11.12,1.37,53.29h-.09a6,6,0,0,0-3.27.8,6.6,6.6,0,0,0-3,6.36l-39.66,2.16-13.88.75M844.77,
    870l-24-39.32-7.36-12.05a6.61,6.61,0,0,0,2.64-6.76l5.13-.89,86.32-15a5.63,5.63,0,0,0,2,3.4l-22,27.68L852.51,871a7.39,7.39,0,0,0-4.61-1.71,6.6,6.6,0,0,0-3.13.78m231.56-86.84a6.23,6.23,
    0,0,0,3.27-.9l.51-.49,134.38,165.46a6.84,6.84,0,0,0-2.09,5.46l-220,5.4a7.73,7.73,0,0,0-1-2.85,7.47,7.47,0,0,0-2.34-2.31l83.6-170.73a7.86,7.86,0,0,0,3.62,1m-91.68,168.6-12-49.83a6.14,
    6.14,0,0,0,1.93-.66c3.25-2,4.13-6.5,1.94-10.08a7.05,7.05,0,0,0-1.15-1.28l93.74-106.48,2-2.27,1,.73-68,138.89-15.6,31.84a6.93,6.93,0,0,0-3.21-.89l-.64,
    0m230.3-5-35.27-43.43-99.1-122a6.83,6.83,0,0,0,2-3.29l36.89,10.77L1211,815.55a7.93,7.93,0,0,0,1.08,5.34,7.78,7.78,0,0,0,5.72,3.67l.2,18.89,1.1,102h-.24a6.25,6.25,0,0,
    0-3.36.82l-.51.49M967.23,888.14l-49.62-87.49a6.49,6.49,0,0,0,2.8-6.51l.86-.1,147.27-17.21a8.32,8.32,0,0,0,1,2.51,7.84,7.84,0,0,0,1.18,1.32L975,889.41a7.36,7.36,0,0,0-4.84-1.93,6.52,
    6.52,0,0,0-2.88.66m-252.13,38-94.17-53.49-27.15-15.42a7.88,7.88,0,0,0-.57-7.14,8.31,8.31,0,0,0-2.82-2.69l28.75-63.16,8.47-18.6a6.76,6.76,0,0,0,3,.75,6.13,6.13,0,0,0,2.54-.53l1.64,3.08,
    82.51,154.73-.1,0a6,6,0,0,0-2.14,2.43m2.85-2.68-24.41-45.77-59.75-112,.12,0a6.09,6.09,0,0,0,2.3-2.82l130,64.56a7.47,7.47,0,0,0,.69,6.32,7.92,7.92,0,0,0,2.32,2.36l-45.45,87.79a6.74,
    6.74,0,0,0-3.28-.89,6.08,6.08,0,0,0-2.53.53m51.15-99.67-36-58.93a5.73,5.73,0,0,0,1.64-1.65l25.92,17.31,42.73,28.55a7.13,7.13,0,0,0,0,6.09L778.48,827l-.12-.32a7.45,7.45,0,0,0-6.22-3.65,
    6.32,6.32,0,0,0-3,.76m-2.65,3-130-64.56a6.82,6.82,0,0,0,.35-2.47l86-.22a7.41,7.41,0,0,0,1,3,7.08,7.08,0,0,0,5.9,3.46,6.17,6.17,0,0,0,2.86-.7l36,58.92a6.1,6.1,0,0,0-2.1,2.62m566.17,
    55.88-108.09-62a7.68,7.68,0,0,0-.56-7l-.2-.23,86.89-64.67a6.89,6.89,0,0,0,5.3,2.72h.26l21.15,127.75a6.22,6.22,0,0,0-2.47.85,6.31,6.31,0,0,0-2.28,2.58M636.81,759v-.41l78.32-12.92a7.59,
    7.59,0,0,0,.78,2,7.25,7.25,0,0,0,6.09,3.56,6.63,6.63,0,0,0,2.55-.51l1.2,2.35-.19.06a6.17,6.17,0,0,0-2.78,5.63l-86,.2m708.29,124.4-.18-.47a7.82,7.82,0,0,0-1.46-1.62l72.67-93.48,
    31.67-40.74a7,7,0,0,0,4.34,1.58,6.49,6.49,0,0,0,3-.71l31.25,52.83,5.24,8.87a6.63,6.63,0,0,0-2.07,8.26L1345.1,883.42m147.07-74-36.5-61.7a6.51,6.51,0,0,0,2.78-5.42l19.32,1.1,62.49,
    3.56a7.45,7.45,0,0,0,1,3.42,7.7,7.7,0,0,0,1.42,1.58l-29.42,39.35-14.11,18.86a6.79,6.79,0,0,0-4.09-1.44,6.25,6.25,0,0,0-2.89.69M1338,879.17l-16.4-99.06-4.75-28.7a5.71,5.71,0,0,0,
    2.19-.75,6.16,6.16,0,0,0,2.76-5.73l14-.33,109.05-2.54a7.73,7.73,0,0,0,1,3,7.27,7.27,0,0,0,1.38,1.54L1343,880.81a7.45,7.45,0,0,0-4.62-1.65H1338M419.38,736a5.94,5.94,0,0,0,2.23-.4l43,
    93.81-.48.16c-3,1.81-3.75,5.91-1.77,9.16a7.15,7.15,0,0,0,1.46,1.63L410,916a7.07,7.07,0,0,0-2.84-1.22L418.69,736a5.32,5.32,0,0,0,.69,0M400.27,918.22l-132.8-66.38a7.14,7.14,0,0,
    0-.66-6.05l-.22-.24L413.68,733.19a7.53,7.53,0,0,0,4.36,2.75l-7.62,118.17-3.91,60.57a8.65,8.65,0,0,0-.88,0,5.63,5.63,0,0,0-3.05.78,6.09,6.09,0,0,0-2.31,2.81M255.55,845.49,72.72,
    741.92a7.22,7.22,0,0,0,.51-3.2l148-7.69a7.66,7.66,0,0,0,1,2.64,7.06,7.06,0,0,0,5.91,3.46,6.56,6.56,0,0,0,1.08-.09l30,105.57a5.76,5.76,0,0,0-1.5.5,5.92,5.92,0,0,0-2.09,
    2.38m4.19-3.09-30-105.57,1.48-.51a6.19,6.19,0,0,0,2.78-5.66l177.84-1.45a8,8,0,0,0,1.07,3.18l.25.28L266.12,845a7,7,0,0,0-5.34-2.7,5.21,5.21,0,0,0-1,.08M996.39,717.62a6,6,0,0,0,3.15-.86,
    6.21,6.21,0,0,0,1.52-1.46L1033.81,742l35.62,29.06a7.37,7.37,0,0,0-1,5.07L959.35,788.9l-39.07,4.57a7.49,7.49,0,0,0-.88-2.31l-.86-1,72.85-74.72a7.32,7.32,0,0,0,5,2.14M579.89,
    852.37l-17.4-2.67-88.37-13.57a7.11,7.11,0,0,0-1-3.9,7.36,7.36,0,0,0-1.61-1.8L557.44,700a6.74,6.74,0,0,0,3.8,1.21h.28l17.25,104.2,6.76,40.86a6.42,6.42,0,0,0-2.51.86,6.83,6.83,0,0,
    0-3.13,5.25m6.29-6.13L571.91,760l-9.74-58.87a5.91,5.91,0,0,0,2.23-.76l1.13-1.08L601,732.6l23.61,22.11a7.2,7.2,0,0,0-.24,8.13,7.65,7.65,0,0,0,2.6,2.5l-37.22,81.75a7.55,7.55,0,0,
    0-3.31-.86h-.3m-120.93-17-11.87-25.87-31.16-67.93.55-.19a6.89,6.89,0,0,0,2.81-7.72l129.06-31.32a5.64,5.64,0,0,0,2.24,3.37L471,830a6.37,6.37,0,0,0-3.59-1.15,6.24,6.24,0,0,
    0-2.13.37M828.09,691.75a5.86,5.86,0,0,0,3.08-.82l.39-.37,37.89,48.15,39.75,50.53a6.57,6.57,0,0,0-2,6.12L853,804.78l-37.22,6.45a7.13,7.13,0,0,0-5.11-5.35l.27-1.89,15.83-112.38a7.84,
    7.84,0,0,0,1.36.14M803.6,808.47,735,762.6a7,7,0,0,0-.34-6.76l-.2-.22,88-66.69a7.57,7.57,0,0,0,3.69,2.62l-5.73,40.7L810,805.83a6.89,6.89,0,0,0-1.36-.13,5.69,5.69,0,0,0-3.06.81,6,6,0,0,
    0-1.95,2m-77.24-55.56-1.2-2.34.23-.07c3-1.82,3.79-5.8,2.07-9.14l94.32-53.11.14.16L734,755.1a6.87,6.87,0,0,0-5.25-2.65,6,6,0,0,0-2.34.46m821,1a6,6,0,0,0,3.18-.87,6.48,6.48,0,0,0,
    2.85-6.59l417.28-52.55.06.14L1501.61,813.7l-.57-1.47a7.37,7.37,0,0,0-1.42-1.57l43.54-58.2a7,7,0,0,0,4.21,1.48M967.5,679.51a5.32,5.32,0,0,0,2.86-.78l.29-.28,12.12,15.75,8.36,10.87a7,7,
    0,0,0-1.07,8.92l.86,1-71.58,73.43-1.27,1.3-1.33-1,47.85-109.83a6.83,6.83,0,0,0,2.91.69M1211.08,814.9l-128.39-37.5a8.12,8.12,0,0,0-1.1-5.42,8.35,8.35,0,0,0-1.91-2.13l60.8-95a6.66,6.66,
    0,0,0,3.68,1.15,6.3,6.3,0,0,0,2.41-.46l20,39.84,47.76,95.24-.31.11a6.59,6.59,0,0,0-2.92,4.18M909.66,788.8l-30.57-38.86L832,690.11a6.6,6.6,0,0,0,2.05-5.62l77.52-6.57,49-4.14a7.44,7.44,
    0,0,0,.91,2.36,7.12,7.12,0,0,0,2.49,2.37L916.14,788.35a7.24,7.24,0,0,0-3.08-.75,5.67,5.67,0,0,0-3,.83l-.38.37m305.27,21.6-67.75-135.08.27-.09a6,6,0,0,0,2.37-3.05L1297.13,737l12.13,
    5.34A7.09,7.09,0,0,0,1310,748l.16.17L1279,771.41l-55.72,41.47a7.57,7.57,0,0,0-5.83-3,6.66,6.66,0,0,0-2.55.5M636.56,758a7.62,7.62,0,0,0-.79-2l-.84-.94,84.29-85.05a7,7,0,0,0,3.81,2l-.92,
    37.6-.68,27.79-.58,0a5.66,5.66,0,0,0-3.07.77,6.65,6.65,0,0,0-2.9,7l-35.65,5.89-42.67,7m433.3,12.65-68.37-55.79a7.08,7.08,0,0,0,.68-5.74l135.5-37.89.51,1.33a7.48,7.48,0,0,0,1.73,
    1.93l-16.49,25.77-44.32,69.25a7.73,7.73,0,0,0-4.24-1.36,5.86,5.86,0,0,0-5,2.5M724.23,672a5.7,5.7,0,0,0,3-.76,6.21,6.21,0,0,0,2.85-4.55l90.54,17.11a7.49,7.49,0,0,0,.82,3.83L797.56,
    701.1l-70.39,39.63a7.41,7.41,0,0,0-5.09-3.37l.39-16.19,1.22-49.2.54,0M625.1,754.27,566,698.89a7,7,0,0,0,.23-7.85l-.57-.64,67.67-61.13a7.46,7.46,0,0,0,3.94,2.29l-7.09,120.85a7.87,7.87,
    0,0,0-.84,0,5.71,5.71,0,0,0-3.05.77l-1.18,1.13m13.68-122.6a5.87,5.87,0,0,0,3.09-.79,6.2,6.2,0,0,0,2.4-3l2,1,70.91,33.62a7.27,7.27,0,0,0,.73,6l.82.92-84.28,85.06a7.24,7.24,0,0,
    0-3.65-2l7.1-120.85c.29,0,.57,0,.86,0m823.44-2.59a5.86,5.86,0,0,0,3.14-.82l0,0,77.21,113.12a6.33,6.33,0,0,0-2.34,4.91l-71.22-4-10.59-.61a7.39,7.39,0,0,0-5.88-7L1461.18,629c.35,0,.7.06,
    1,.07m80.85,111.82-36-52.75-41.2-60.37a6.5,6.5,0,0,0,2.48-4.63l502.19,69v1.11l-417.28,52.57a7.44,7.44,0,0,0-.87-2.24,7.32,7.32,0,0,0-6.09-3.59,6.07,6.07,0,0,0-3.19.88l0,0M834,
    683.81a7.61,7.61,0,0,0-1-2.55l-.81-.91,65.4-65.56a7,7,0,0,0,4.77,2.05,5.48,5.48,0,0,0,3-.82l1-1,55.39,53.45a6.35,6.35,0,0,0-1.24,4.6L834,683.81M1055.65,609a6.21,6.21,0,0,0,3.32-.91,
    6.72,6.72,0,0,0,1.84-1.76l65.63,50.06,11.56,8.81a6.9,6.9,0,0,0-.59,5.37L1007.28,707l-5.35,1.49-.53-1.36a7.67,7.67,0,0,0-2.18-2.28l29.48-54.4,23.06-42.55a7.87,7.87,0,0,0,3.89,
    1.12m-64.06,95.66L986.46,698l-15.34-20a6.58,6.58,0,0,0,1-8.34l-.33-.36,39.42-32,38.48-31.25a8.35,8.35,0,0,0,1.48,1.49L1005,692.67l-6.4,11.82a7.29,7.29,0,0,0-3.61-1,5.75,5.75,0,0,
    0-3.09.85l-.33.32M1370.78,608a6,6,0,0,0,2.73-.63l14.57,25.12,59.64,102.86a6.54,6.54,0,0,0-2.82,6l-48.9,1.15-74.18,1.74a7.25,7.25,0,0,0-1-2.8,7.13,7.13,0,0,
    0-2.81-2.55l50.11-131.45a6.89,6.89,0,0,0,2.65.56m-408.55,60-55.4-53.45a6.36,6.36,0,0,0,1.26-4.47l90.2-5.17,49.38-2.83a8.39,8.39,0,0,0,1.12,3l.41.46-77.89,63.25a7,7,0,0,0-5.15-2.51,5.5,
    5.5,0,0,0-2.92.8l-1,1M1448.3,735.1l-74.2-128a6.28,6.28,0,0,0,2.77-4.2l67,15.28,10.64,2.43a7.65,7.65,0,0,0,6,8.32L1455.14,695l-3.22,39.5c-.3,0-.59,0-.89-.06a6.09,6.09,0,0,
    0-2.73.62m-138.79,6.68-159.44-70.2a7.3,7.3,0,0,0-.8-5.82l-.64-.72,69.62-64.74a7.38,7.38,0,0,0,5.22,2.37,6.17,6.17,0,0,0,3-.75l39,62.77,46.17,74.4a5.76,5.76,0,0,0-2,2.69m2.57-3L1227,
    601.57a6.45,6.45,0,0,0,2.66-5.43l116.3,4.34,17.62.66a7.73,7.73,0,0,0,1,3.35,7.57,7.57,0,0,0,3,2.66l-50.1,131.45a6.78,6.78,0,0,0-2.6-.55,5.5,5.5,0,0,0-2.74.69M820.67,683.11,730.13,
    666a7.43,7.43,0,0,0-1-4.32l-1.06-1.19,59.74-67.68a6.81,6.81,0,0,0,4.45,1.76,6.43,6.43,0,0,0,1.62-.21l29.78,81.12,1,2.66-1.05.36a6.31,6.31,0,0,0-2.89,4.61m4.54-5.18-28.16-76.75-2.58-7,
    1-.34a6.19,6.19,0,0,0,2.81-4.38L864.75,603l30.67,6.25a7.16,7.16,0,0,0,1,4.21l.76.85-65.41,65.56a7,7,0,0,0-4.89-2.1,6.21,6.21,0,0,0-1.65.2m323-13.4,0,0,59.92-70.7,4.29-5.06a6.69,6.69,0,
    0,0,4.29,1.64,6.5,6.5,0,0,0,1.39-.15,7.11,7.11,0,0,0-.9,8.83l.67.74-69.62,64.75m72.63-75.88a6.13,6.13,0,0,0,1.78-3.93l3,.34,135.59,15.32-131.59-4.92a7.64,7.64,0,0,0-1-3.4,7.3,7.3,0,0,
    0-6.18-3.59,7.14,7.14,0,0,0-1.6.18M92.14,639.9,34.33,576.44l.92-1.21L72.07,597a6.93,6.93,0,0,0,.48,6.35,6.84,6.84,0,0,0,5.77,3.36,6.18,6.18,0,0,0,1.91-.28l.4,1L93.7,
    638.88l-.77.27-.79.75m333.19,87a7.81,7.81,0,0,0-.63-1.64,8.3,8.3,0,0,0-2-2.25l51.08-86.29,35.06-59.23a7.1,7.1,0,0,0,3.76,1.12,6.54,6.54,0,0,0,2-.28l43.35,109.75-.84.29a6.47,6.47,0,0,
    0-2.65,7.22L501.11,708.5l-75.78,18.38m133.15-39L515.14,578.1l.94-.32a6.42,6.42,0,0,0,2.6-3.38l112.71,47.71a7.59,7.59,0,0,0,.85,5.95l.61.68-29,26.2-38.67,34.94a6.88,6.88,0,0,
    0-4.95-2.27,6.17,6.17,0,0,0-1.75.25M234.05,730a7.2,7.2,0,0,0-1-2.91,7,7,0,0,0-5.57-3.38L216.65,564a6.31,6.31,0,0,0,3.12-.83,6.38,6.38,0,0,0,1.49-1.44L412.94,724.25a7.13,7.13,0,0,
    0-1.05,4.28L234.05,730m-12-3.6L103,649.09a7.48,7.48,0,0,0-.39-7.13l-.19-.2,61.83-46.11L210.62,561a7.48,7.48,0,0,0,5.37,2.9l3,43.64,7.88,116a5.74,5.74,0,0,0-2.86.77,5.86,5.86,0,0,
    0-1.92,2M94.31,638.68,80.82,606.24l.71-.24A6.33,6.33,0,0,0,84,598.55l52.38-16.48,73.14-23,.47,1.22.2.22-87.89,65.54L101.9,641.23a7.26,7.26,0,0,0-5.61-2.86,6.4,6.4,0,0,0-2,
    .31m537.32-17.17-59.3-25.1-53.4-22.61a7.71,7.71,0,0,0-.58-5.36l29.18-15,9.42-4.83.06.14a7.64,7.64,0,0,0,6.38,3.76,6.35,6.35,0,0,0,3.34-.92l.91-.87,65.16,68.78a6.28,6.28,0,0,0-1.17,
    2m557.63-80.63a6,6,0,0,0,2.63-.58L1204.43,563l8.11,14.7c-3,1.83-3.78,5.95-1.78,9.24l1.11,1.24-18.24,21.52-46,54.23a7.7,7.7,0,0,0-1.54-1L1187,540.45a6.59,6.59,0,0,0,2.3.43m-50.91,
    123.75-60.51-46.15-16.68-12.72a7.69,7.69,0,0,0,.15-7.23l121.81-61.33.07.17a7.42,7.42,0,0,0,3.16,2.77L1145.52,662.7a7,7,0,0,0-2.48-.48,5.72,5.72,0,0,0-3,.82,6,6,0,0,0-1.65,
    1.59m74.8-87.12-20.64-37.42a6,6,0,0,0,2.55-3.44L1363.6,599l0,1-141-15.93a7.2,7.2,0,0,0-1-3.68,6.93,6.93,0,0,0-5.84-3.42,6.07,6.07,0,0,0-2.6.57m-317.72,31-36.09-7.34-61.05-12.43a7.32,
    7.32,0,0,0-.88-4l87.23-53.13a7.18,7.18,0,0,0,5.88,3.25h.14l9.82,68.63a5.82,5.82,0,0,0-2.32.79,5.93,5.93,0,0,0-2.73,4.24M750,527.84a5.78,5.78,0,0,0,2.93-.74L760.5,539l27.27,43a6.77,
    6.77,0,0,0-1.49,9.09l1,1.17-17.56,19.9L727.58,660a7.12,7.12,0,0,0-2.52-1.51l23.5-130.79a6.7,6.7,0,0,0,1.47.17m-32.58,134L669.17,639l-24.66-11.69a7.5,7.5,0,0,0-.75-6.23l-.67-.75L745,
    525.55a7.45,7.45,0,0,0,2.93,2l-20.67,115-2.83,15.78a7.38,7.38,0,0,0-1.55-.19,5.83,5.83,0,0,0-3.09.84,5.93,5.93,0,0,0-2.32,2.89M523,525a6,6,0,0,0,3.17-.86,6.2,6.2,0,0,0,1.95-1.93l25.07,
    17,3.44,2.33a7.38,7.38,0,0,0,0,6.53l-38.6,19.8-.06-.15a8,8,0,0,0-4.26-3.4l7.62-39.48a7,7,0,0,0,1.64.2m-101,197.73a7.16,7.16,0,0,0-3.37-1.08L406.8,536.52,406,524.44a5.72,5.72,0,0,0,
    2.89-.77,5.78,5.78,0,0,0,2.2-2.67l56.6,28.38,37.7,18.91a7.76,7.76,0,0,0,.71,6.58,8.12,8.12,0,0,0,2.07,2.28l-60,101.45-26.1,44.08m211.2-103.59-65.17-68.77a6.92,6.92,0,0,0,1.63-5.64L730,
    523.8l13-1.69a7.71,7.71,0,0,0,.85,2.2l.64.72L672.2,592.29l-29.57,27.5a7.51,7.51,0,0,0-5.32-2.43,6.08,6.08,0,0,0-3.17.88l-.88.85m155-37.44-8-12.56-26.84-42.37A6.26,6.26,0,0,0,756,
    521.6l123.54,6.16,3.84.19a7.42,7.42,0,0,0,.9,3.07l-82.58,50.3-4.65,2.83a7.13,7.13,0,0,0-5.81-3.26,6,6,0,0,0-3,.76M413.41,723.8l-76.86-65.15L221.71,561.29a7.2,7.2,0,0,0,1-5.62L399.18,
    519.3a7.42,7.42,0,0,0,.65,1.71,7.06,7.06,0,0,0,5.55,3.37L418,721.54a6.16,6.16,0,0,0-3.14.84,6.29,6.29,0,0,0-1.49,1.42m92.26-156.12-53.74-26.94L411.37,520.4a6.86,6.86,0,0,0,
    .33-2.35l24.26,0,79.71.11a7.45,7.45,0,0,0,5.09,6.37l-6.86,35.57-.76,3.91a7.34,7.34,0,0,0-1.74-.22,6.25,6.25,0,0,0-3.31.9,6.36,6.36,0,0,0-2.42,3m652-73.44a5.77,5.77,0,0,0,3.07-.79l0,0,
    11.41,16.74,12.23,18-18-22-9.71-11.89c.32,0,.65.06,1,.06m-96.57,103.63-.08-.21a8,8,0,0,0-1.47-1.64l83.59-106.91a7.55,7.55,0,0,0,4.68,1.72,6.88,6.88,0,0,0,3.12-.74l.22.56a7.64,7.64,0,0,
    0,4.66,3.45l28.3,34.65a6.79,6.79,0,0,0-1.21,7.8l-121.81,61.32m-153,11.58a6.81,6.81,0,0,0-2.45-4.2l54.19-76.82,28.75-40.76a6.94,6.94,0,0,0,4,1.36,6.68,6.68,0,0,0,2.67-.55l20.47,39L1051,
    594.62l-.18.06a7,7,0,0,0-3.12,6.76l-139.59,8m-7-5.92-9.81-68.63a6.18,6.18,0,0,0,2.42-.83c2.77-1.69,3.6-5.28,2.27-8.45l78-35.13L986.3,485l.17.45a8,8,0,0,0,1.6,1.78l-83,117.58a6.49,6.49,
    0,0,0-3.86-1.25h-.13m150.46-9.12L995.9,488.27l.16,0a6.52,6.52,0,0,0,2.93-5.9l141,1.15a8.29,8.29,0,0,0,1.12,3.46,8.41,8.41,0,0,0,1.48,1.66L1059,595.5a7.39,7.39,0,0,0-4.6-1.68,7.07,7.07,
    0,0,0-2.85.59M407.05,462.32a5.91,5.91,0,0,0,2.38-.81,5.67,5.67,0,0,0,2.1-2.48L432,469.94l84.14,44.92a6.92,6.92,0,0,0-.42,2.65l-68.48-.09-35.49,0a7.29,7.29,0,0,0-1-3,7.12,7.12,0,0,
    0-5-3.33l.21-24.55.22-24.27,1,.09m532-5.55a6,6,0,0,0,3.15-.87,6.09,6.09,0,0,0,2.1-2.3l22.12,13.26L986,478.58a7.25,7.25,0,0,0,.06,5.74L895.76,525l-.17-.44a7.74,7.74,0,0,
    0-1.82-2l41.43-66.94a7.32,7.32,0,0,0,3.88,1.21M653.89,434.06a6.26,6.26,0,0,0,3.34-.92l1.1-1.05L721,493.51l23.22,22.76a6.64,6.64,0,0,0-1.35,5.17L569.54,544a6.41,6.41,0,0,
    0-2.33-3.94l82.18-107.62a7.39,7.39,0,0,0,4.5,1.62M72.32,596.4,51,583.8,35.5,574.62a7.46,7.46,0,0,0-.49-6.87,7.65,7.65,0,0,0-5.28-3.55l3.15-106.56.86-29.05,1.4.07L76,593.62a4.74,4.74,0,
    0,0-3.68,2.78m4.28-3L42.14,454.27l-6.39-25.82a6.48,6.48,0,0,0,1.9-.65A6.4,6.4,0,0,0,39.52,426L209.74,552.59a7.29,7.29,0,0,0-.51,5.83l-93.45,29.41L83.72,597.91l-.42-1.1a7,7,0,0,
    0-5.88-3.45,7.52,7.52,0,0,0-.82,0M29.08,564.14l-1.44,0L3.27,471.35l-6.52-24.79A6,6,0,0,0-1.52,446c2.92-1.78,3.76-5.57,2.3-8.89l9.59-4.52,17.11-8.06.15.37a7.82,7.82,0,0,0,5.45,3.66l-4,
    135.61m-9.69-136.6L27,423.69l.07.17,0,0-1.64.78-6.1,2.87m725.29,88.29-85.9-84.18a7,7,0,0,0,1.44-5.59l11.51-1.71,10.58-1.58a7.62,7.62,0,0,0,.79,2.06,7.13,7.13,0,0,0,6,3.51,6.06,6.06,0,
    0,0,2.92-.71l53.48,87.44-.8.76M295.79,410.09a6,6,0,0,0,3.15-.87l.93-.89L400.31,513a6.49,6.49,0,0,0-1.39,5.65L222.41,555a7.82,7.82,0,0,0-.71-1.86,8,8,0,0,0-2.41-2.43l12.6-24.47L292.2,
    409.1a7.55,7.55,0,0,0,3.59,1M746,514.74,692.54,427.3a6.76,6.76,0,0,0,1.59-9.17,7.57,7.57,0,0,0-1.82-2l4.14-6.75a7,7,0,0,0,3.75,1.15,6.75,6.75,0,0,0,2.08-.33L734.75,487l11.66,
    27.6-.39.13m-86-89.36-.52-1.36,34.37-17.34.07.18a8.17,8.17,0,0,0,1.93,2.15l-4.14,6.75a7.08,7.08,0,0,0-3.75-1.15,5.76,5.76,0,0,0-3,.83,6.42,6.42,0,0,0-2.82,6.66l-9.17,1.36L660,
    425.38M401.93,511.62,335.53,403a6.46,6.46,0,0,0,1.41-1.35l63.36,50a7.09,7.09,0,0,0,5.14,10.49l-.1,11.52L405,511h-.32a5.66,5.66,0,0,0-2.75.63M1140,482.8l-141-1.16a7.87,7.87,0,0,
    0-1-3.21l-.18-.19,102.42-75.88a7.2,7.2,0,0,0,5.55,2.82,6.17,6.17,0,0,0,2.38-.45l35.42,71.61-.37.12a7,7,0,0,0-3.14,6.34M400.77,512.54,346.21,455.7l-45.88-47.81a7,7,0,0,0,
    1.6-5.82l18.6-3,4.31-.7a8,8,0,0,0,.81,2.09,7.45,7.45,0,0,0,6.27,3.69,6.35,6.35,0,0,0,3.07-.76l47.95,78.41L401.39,512l-.62.58m156.14,28.29L532.07,524l-3.66-2.47a7.33,7.33,0,0,
    0-.34-7.15,7.5,7.5,0,0,0-2.94-2.67L552.5,441l17-44a7.22,7.22,0,0,0,1.49.49l-8.11,140.58a8.43,8.43,0,0,0-.86-.05,5.81,5.81,0,0,0-3.13.8,6.29,6.29,0,0,0-2,2m15.65-143.22a6,6,0,0,0,
    3.2-.81,6.38,6.38,0,0,0,2.53-3.24l68.37,30.55a7.6,7.6,0,0,0,.81,6.18,7.78,7.78,0,0,0,1.45,1.62L566.74,539.54a7.27,7.27,0,0,0-3.17-1.4l8.11-140.58a8.65,8.65,0,0,0,.88.05M516.34,514.26,
    411.78,458.42a6.77,6.77,0,0,0-.07-4.75l153.81-60.56.3.79a8,8,0,0,0,3.11,2.8l-44.4,114.71a7.33,7.33,0,0,0-2.88-.63,5.77,5.77,0,0,0-3.07.83,6,6,0,0,0-2.24,2.65m847.52,84.09L1257,558.84,
    1195.3,536a7.42,7.42,0,0,0-1-5.46,7.67,7.67,0,0,0-1.51-1.69L1203,514.66l89-124a7,7,0,0,0,4.16,1.4,7.23,7.23,0,0,0,1.66-.19l69.79,202.65-1.18.4a6.1,6.1,0,0,0-2.56,3.48M1185,
    527.88l-22.14-32.48L1161.2,493a7.07,7.07,0,0,0,1.39-9.31l-.16-.18,128.1-94.42,1,1.06-73.4,102.37-25.76,35.91a7.09,7.09,0,0,0-4.14-1.42,6,6,0,0,0-3.17.87l0,0m195-139.61a6,6,0,0,0,
    1.45-.15l64.91,190.39L1458.77,615l-1.25.43a6.51,6.51,0,0,0-3,4.49l-77.67-17.71a7.54,7.54,0,0,0-1-4.61,7.43,7.43,0,0,0-5-3.43l7-167.86,1.58-38.08.6,0M210.06,552,70.34,448.12,39.85,
    425.44a7.48,7.48,0,0,0,.43-6.18l53.27-18.64,56.92-19.89.41,1.06a7.77,7.77,0,0,0,6.56,3.81,6.65,6.65,0,0,0,1.6-.17l39.23,119.05,14.95,45.34-1.34.45a6.21,6.21,0,0,0-1.82,
    1.75m3.76-2.4-24.58-74.57-29.6-89.82,1.39-.48a6.8,6.8,0,0,0,3.11-5l124,22.23a7.4,7.4,0,0,0,3.44,6.85L218.69,550.4a7.26,7.26,0,0,0-3.44-.94,6.33,6.33,0,0,0-1.43.16m1245.56,65.2L1420.21,
    500l-38.19-112,1.27-.44a6.3,6.3,0,0,0,2.35-2.81l585.29,305.13a6.44,6.44,0,0,0-.4,1.68l-304.1-41.78-198.09-27.22a7.82,7.82,0,0,0-1.06-4.17,7.48,7.48,0,0,0-6.3-3.67,6.61,6.61,0,0,
    0-1.6.19m-91.17-20.55L1308,419.39l-9.57-27.78,1.22-.42a6.68,6.68,0,0,0,3-6.37l52.62-2.39,17.1-.78a8.09,8.09,0,0,0,1.07,3,7.78,7.78,0,0,0,5.27,3.59l-5.58,135-2.95,71-.57,0a5.42,5.42,0,
    0,0-1.38.16M5.09,374.47a6.58,6.58,0,0,0,2.74-.58l21.26,40.35-.14.05c-2.85,1.73-3.67,5.49-2.16,8.74L.47,436.26l-.08-.2a7.76,7.76,0,0,0-4.5-3.46l8-58.24a7.07,7.07,0,0,0,1.21.11m25,
    39.44L8.49,373.66l.12,0a6.82,6.82,0,0,0,3.1-5.77l138.06,10a8,8,0,0,0,.45,2.18L46.6,416.32,40,418.62l-.41-1.06a7.9,7.9,0,0,0-5.08-3.63,6.3,6.3,0,0,0-4.47,0m1123.78,66.67-.43-1.13a8.31,
    8.31,0,0,0-3.41-3l39-110.89-10.43,39.08-20.2,75.67a6,6,0,0,0-1.82-.28,6.71,6.71,0,0,0-2.66.55m-9.71-4.45-35.42-71.61.32-.1c2.84-1.74,3.67-5.46,2.25-8.71l74.62-35.39.12.31a7.37,7.37,0,
    0,0,3,2.66l-28.23,80.38-11.41,32.48a6.94,6.94,0,0,0-2.63-.53,6.73,6.73,0,0,0-2.63.51m47.93-112a5.82,5.82,0,0,0,3.12-.85,6.11,6.11,0,0,0,2.74-4l90.91,24a7.88,7.88,0,0,0,1.05,
    5l.17.18L1162,483a7.71,7.71,0,0,0-3-2.34l2.49-9.34,28.68-107.45a6.63,6.63,0,0,0,2,.31m-791.37,87-63.37-50a7.45,7.45,0,0,0-.13-7.77l-.64-.72L359,372.09l25.91-23.79a6.88,6.88,0,0,0,4.92,
    2.24H390l14.54,98.38a5.88,5.88,0,0,0-2.3.78,5.68,5.68,0,0,0-1.51,1.46m4.46-2.21-14.54-98.39a5.91,5.91,0,0,0,2.32-.78,6.1,6.1,0,0,0,2.74-4l44.56,11.35,124.51,31.72a7.8,7.8,0,0,0,.52,
    3.63L411.46,453l-.26-.68a7,7,0,0,0-5.9-3.4h-.14M646.9,423.51l-50-22.34L578.54,393a7.79,7.79,0,0,0-.82-6.28,8.06,8.06,0,0,0-2.61-2.56l8.47-17.6,11.11-23.09a6.94,6.94,0,0,0,3.17.83,5.69,
    5.69,0,0,0,2.82-.72l37.24,59.29,11.18,17.8a6.28,6.28,0,0,0-2.2,2.89M889.1,521,869,407.43l-11.15-63.15a5.9,5.9,0,0,0,2.27-.78l.21-.2L934,444.1a7,7,0,0,0-1.2,9,7.7,7.7,0,0,0,1.85,
    2.07l-41.43,66.94a7,7,0,0,0-3.75-1.16h-.33m-5.72,6.28-102.69-5.11L756,520.92a7.44,7.44,0,0,0-1-3.37,7.68,7.68,0,0,0-1.94-2.14l8.55-14.68,91.61-157.5a7.14,7.14,0,0,0,3.69,1.12h.35l2.56,
    14.49,28.65,162.22a6,6,0,0,0-2.21.75,6.3,6.3,0,0,0-2.86,5.47m-233.76-107-48.41-77.09a6.1,6.1,0,0,0,1.65-1.75l90.67,58.3a7.42,7.42,0,0,0,.07,6.31l-9.37,4.72-25,12.61-.07-.19a7.6,7.6,0,
    0,0-6.35-3.73,6.34,6.34,0,0,0-3.18.82M747,514.4,702.89,410l.74-.25c2.85-1.73,3.7-5.39,2.39-8.66l58.56-24.74,85.76-36.21.23.6a8,8,0,0,0,2,2.22l-65.7,112.94L752.43,515.1a6.69,6.69,0,0,
    0-3.44-1,6.4,6.4,0,0,0-2,.31m357.42-123.24L1100,363.62l-4.35-27.21a6.5,6.5,0,0,0,2.56-.87,6.79,6.79,0,0,0,3-4.28l81,23.65,2.81.83a7.25,7.25,0,0,0,.63,3.92L1111,395.05l-.12-.32a7.34,
    7.34,0,0,0-6.2-3.57,2.61,2.61,0,0,0-.28,0M588.46,327a6.42,6.42,0,0,0,2.64-.56l2.55,4.84-.14.05c-3,1.85-3.85,6.07-1.81,9.41a7.48,7.48,0,0,0,2.38,2.34L574.51,383.8l-.79-.4,6.71-28.74,
    6.51-27.84a5.63,5.63,0,0,0,1.52.21M934.41,443.66l-73.58-100.8a7.06,7.06,0,0,0,1.23-9.15,7.75,7.75,0,0,0-2.06-2.23l4.7-8.18a7,7,0,0,0,3.62,1.06,6.37,6.37,0,0,0,2.62-.56L921,
    417.71l13.72,25.71-.11,0-.21.2M1055,319.09a5.8,5.8,0,0,0,2.77-.66l21.12,35.74,22.42,37.95a7,7,0,0,0-1.72,9.54l.16.18-12,8.9-90.39,67a7.66,7.66,0,0,0-2.45-2l2.41-6.57,55.12-150.56a6.71,
    6.71,0,0,0,2.58.54M986.24,478l-7.11-4.26L944.58,453a7.33,7.33,0,0,0-.47-6.75,7.64,7.64,0,0,0-1.2-1.33l107.5-127.53,1.38.87L994.25,475.37a7.34,7.34,0,0,0-2.78-.59,5.85,5.85,0,0,
    0-3.11.86,6.08,6.08,0,0,0-2.12,2.33m115.6-86.14-43.53-73.69a6,6,0,0,0,2.3-3l26.51,11.15a8,8,0,0,0,.91,6.32,7.89,7.89,0,0,0,6.66,3.85h.32l4.07,25.4,4.7,29.36a6.37,6.37,0,0,
    0-1.94.66M935.33,443.22,871.55,323.6l.12,0a6.6,6.6,0,0,0,3-6.19l173.12-4.72a7.71,7.71,0,0,0,1,2.89,7.88,7.88,0,0,0,1.18,1.32L942.44,444.38a7,7,0,0,0-4.48-1.72,6.41,6.41,0,0,
    0-2.63.56M405.42,310.68a5.83,5.83,0,0,0,3.11-.84,6.2,6.2,0,0,0,2.28-2.74L485,345.6l80.18,41.62-.38.93L428.34,353.41l-32.62-8.31a7.22,7.22,0,0,0-1-4.6,7.31,7.31,0,0,
    0-2.83-2.57l10.65-27.87a7.18,7.18,0,0,0,2.86.62m160,75.93-149.8-77.74-4.56-2.37a7,7,0,0,0,.4-2l170.19,15.41a7,7,0,0,0,4.68,6.62l-6.5,27.81-6.72,28.76a7,7,0,0,0-1.91-.28,6.4,6.4,0,0,
    0-3.4.94,6.31,6.31,0,0,0-2.38,2.84m485.28-80.69L1040,289.65l-9.91-15.11,1-1L1088.14,324a6.84,6.84,0,0,0-.77,1.67l-26.52-11.15a7.53,7.53,0,0,0-7-9.41,6.29,6.29,0,0,0-3.16.84M874.62,
    316.69l-.33-1.12,145-44.8.49,1.27a7.75,7.75,0,0,0,6.48,3.81,6.46,6.46,0,0,0,3.34-.89l20.58,31.38a6.42,6.42,0,0,0-2.47,5.63l-173.12,4.72m-140.47-46.8a6.49,6.49,0,0,0,3.4-.94,6.37,6.37,
    0,0,0,2.17-2.36l73.1,44.51,37.28,22.71a7.25,7.25,0,0,0,0,5.64l-90.78,38.34L705.77,400.4l-.23-.61a7.74,7.74,0,0,0-3.85-3.16L725,299.71l7.24-30.11a7.59,7.59,0,0,0,1.94.29M693.78,
    399.11l-52.6-33.82L603.1,340.81a7,7,0,0,0-.15-6.15L727.7,266.1a7.91,7.91,0,0,0,3.9,3.19l-21.45,89.26-9.07,37.78a6.82,6.82,0,0,0-1.9-.27,6.1,6.1,0,0,0-5.4,3.05M850.35,333.2,740,
    266l.19-.46,121,49.34a7.6,7.6,0,0,0,.9,5.88,8.07,8.07,0,0,0,2.08,2.26l-4.7,8.17A7.39,7.39,0,0,0,855.6,330a6,6,0,0,0-3.14.86,6.2,6.2,0,0,0-2.11,
    2.3m-256.1-2.09-2.54-4.85.14-.05c2.65-1.61,3.48-5,2.33-8L727.37,265.3l0,.14L602.68,334a7,7,0,0,0-5.89-3.41,6.45,6.45,0,0,0-2.54.52M294.39,395.64,279.67,287.33l-5.72-42,1-.32,53.69,
    145.28-1.06.36a6.78,6.78,0,0,0-3,7.09l-22.91,3.72a7.88,7.88,0,0,0-.82-2.12,7.51,7.51,0,0,0-6.37-3.65h-.1m-6.23,5.62-55.92-10L164.14,379a8.08,8.08,0,0,0-1.11-4.65,8.35,8.35,0,0,
    0-1.33-1.5L268.38,243.43a7.47,7.47,0,0,0,4.81,1.78h.1l6,44.3,14.42,106.06a6.34,6.34,0,0,0-2.59.88,6.47,6.47,0,0,0-3,4.81M329.22,390,313,346.08,275.53,244.76l1.12-.39a6.31,6.31,0,0,0,
    1.34-1.29l7.21,6.56L384,339.42a6.94,6.94,0,0,0-.14,7.69l.6.68L336.1,392.18a7.22,7.22,0,0,0-5.2-2.37,6.41,6.41,0,0,0-1.68.22M384.46,339l-86-78.19-20-18.14.65-1.27,119.16,59.36a7.47,
    7.47,0,0,0,.69,6.32,7.71,7.71,0,0,0,3,2.7l-10.65,27.87a7.13,7.13,0,0,0-2.7-.59,5.69,5.69,0,0,0-2.95.8L384.46,339m58.87-135.49a5.59,5.59,0,0,0,4.8-2.35l56.6,48.29,77.9,66.47a6.45,6.45,
    0,0,0-1,3.36L411.45,303.83a7.65,7.65,0,0,0-1-3.76,7.54,7.54,0,0,0-3.16-2.79l4.13-11.73L440.5,202.9a7.62,7.62,0,0,0,2.83.58m-164-5.09a5.48,5.48,0,0,0,2.85-.75l1.2-1.16L399.05,299l-.54,
    1.13-56.7-28.25-62.46-31.12a7.88,7.88,0,0,0-.72-6.66,8.12,8.12,0,0,0-4.74-3.6l2-15.56,2.18-16.65a7.86,7.86,0,0,0,1.19.11M399.51,298.55l-27-23.88L283.81,196a6.27,6.27,0,0,0,
    1-3.69l150.62,3.78a8,8,0,0,0,1.1,3.52,8,8,0,0,0,3.34,2.94L406.65,297a7.43,7.43,0,0,0-2.69-.55,5.86,5.86,0,0,0-3.12.86,5.74,5.74,0,0,0-1.33,1.27M907.37,192a6.31,6.31,0,0,0,
    5.27-2.8l52.74,37.13,54.14,38.11a7.34,7.34,0,0,0-.45,5.67L874,314.93l-.47-1.24a7.73,7.73,0,0,0-3.52-3l35-119.11a7.43,7.43,0,0,0,2.36.42m112.4,71.83L943.6,210.22,912.89,188.6a7.59,7.59,
    0,0,0-.29-7.56l-.29-.33,19.75-15.36,16.29-12.67a7.24,7.24,0,0,0,5.44,2.72,6,6,0,0,0,2.83-.69l52,86,12.92,21.37a6.32,6.32,0,0,0-1.78,1.71m-158.41,50.4-96.09-39.19L740.4,264.9a7.79,7.79,
    0,0,0-.91-6l-.85-.95,112-111.65a7.17,7.17,0,0,0,4.6,2.1L866.94,310a5.73,5.73,0,0,0-5.58,4.2m8.08-3.85a6.73,6.73,0,0,0-1.84-.29l-5.32-73.48-6.39-88.2a6.06,6.06,0,0,0,3-.81,6.16,6.16,0,
    0,0,1.47-1.41l.57.48,39.85,33.39a7.61,7.61,0,0,0,0,8.16,7.88,7.88,0,0,0,3.6,3.05l-14.82,50.51-20.14,68.6m31.78-130.76L860.8,145.75a6.7,6.7,0,0,0,1-3.57l33,2.38,51.84,3.75a7.43,7.43,0,
    0,0,1,3.54l.26.3L930.11,166l-18.27,14.21a7.75,7.75,0,0,0-5.83-2.93,6.08,6.08,0,0,0-3.26.9,6.3,6.3,0,0,0-1.53,1.47m387.68,203-90.91-24a7.09,7.09,0,0,0-4.17-7.45l69.39-215.34a7.26,7.26,
    0,0,0,2.47.43l28.86,241.25a6.29,6.29,0,0,0-2.72.86,6.5,6.5,0,0,0-2.92,4.25m13.74,1.5a8,8,0,0,0-1.07-2.9,7.52,7.52,0,0,0-6.37-3.65l-28.87-241.25a6.3,6.3,0,0,0,1.62-.49l54,119.3,54,
    119.18-.58.2a6.74,6.74,0,0,0-3,6.44l-69.71,3.17M583.1,315.44,448.6,200.69a7.78,7.78,0,0,0,0-8.4l-.9-1,71-71.9a7.16,7.16,0,0,0,4.92,2.12,6.66,6.66,0,0,0,1.33-.13l60.82,
    192.31-1.3.44a5.85,5.85,0,0,0-1.36,1.31m602.06,39.64-21.88-6.39-61.93-18.09a8.21,8.21,0,0,0-1.11-5.49,8.3,8.3,0,0,0-2.39-2.47l28.09-52.23,79.58-148a7.26,7.26,0,0,0,2.15.87L1196,
    288.65l-4.36,61.91a6.77,6.77,0,0,0-.89-.06,5.47,5.47,0,0,0-2.93.76,6,6,0,0,0-2.68,3.82m-598.78-41.6L525.54,121.17l1.36-.47a6,6,0,0,0,1.91-1.83l90.07,63.33,108.5,76.3a7.38,7.38,0,0,
    0-.26,6.15l-98.71,39.17L593.93,317.5l-.26-.68a7.1,7.1,0,0,0-6-3.47,6.42,6.42,0,0,0-1.32.13m622.89-190a5.83,5.83,0,0,0,3.16-.81,6.53,6.53,0,0,0,3-4.55l42.54,9.51a7.72,7.72,0,0,0,4.62,
    8l-69.38,215.35-.91-.26,16-227.24c.32,0,.64.05,1,.05M1088.6,323.53l-57-50.38a7.59,7.59,0,0,0,.09-8.32,7.93,7.93,0,0,0-2.61-2.55l32.11-67.55,50.32-105.86a7.33,7.33,0,0,0,1.65.67L1094.4,
    321.37a9.79,9.79,0,0,0-1.08-.07,6,6,0,0,0-3.28.85,6.29,6.29,0,0,0-1.44,1.38m-66.5-61.71L957.17,154.39a6.64,6.64,0,0,0,2.13-8l148.85-60.83.25.65a7.58,7.58,0,0,0,2.45,2.4L1092,128.24,
    1028.42,262a7.41,7.41,0,0,0-3.37-.87,6.33,6.33,0,0,0-2.95.72m92.66-172.16a5.58,5.58,0,0,0,3-.76,6.14,6.14,0,0,0,2.59-3.55l81.25,28.74a7.9,7.9,0,0,0,1,5.67,8,8,0,0,0,2.29,2.38L1097.25,
    322.33a8,8,0,0,0-2.18-.9l18.7-231.83a8.22,8.22,0,0,0,1,.06m-383,165.6L712,189.92,676.61,72.74l1.39-.47a6,6,0,0,0,2.42-3.16l134.19,55.78L848.48,139a7.52,7.52,0,0,0,.86,5.85l.82.91-112,
    111.66a7.41,7.41,0,0,0-5.15-2.25,6.85,6.85,0,0,0-1.28.12m-4.11,2.63L529.07,118.26a7.09,7.09,0,0,0,.41-5.5l67.6-21.57,71.27-22.73.42,1.11a7.12,7.12,0,0,0,6,3.49A5.72,5.72,0,0,0,676,
    73l55.13,182.52a5.87,5.87,0,0,0-1.51.52,6.24,6.24,0,0,0-2,1.9M159.82,51.6a5.54,5.54,0,0,0,2.54-.57L268.43,231.29a7.4,7.4,0,0,0-1.85,10.13,8.24,8.24,0,0,0,1.33,1.49L161.23,372.36a7.62,
    7.62,0,0,0-3.9-1.71l1.16-166.87,1.07-152.19h.26m-10,325.61-69.37-5-68.69-5a8.07,8.07,0,0,0-1.1-3.86A8.24,8.24,0,0,0,8,360.71l149-309.84a6.24,6.24,0,0,0,2,.67l-1.55,222.33-.67,
    96.72h-.46a6.23,6.23,0,0,0-3.35.83,6.82,6.82,0,0,0-3.1,5.8M269,231,196.79,108.3,162.92,50.75l.27-.26,111,136.44a6.53,6.53,0,0,0-.85,8.13,7.07,7.07,0,0,0,4.11,3.16l-1.1,8.41-3.11,
    23.8a6.72,6.72,0,0,0-1.26-.12,6.36,6.36,0,0,0-3,.7M1376.55,374.13l-108-238.49.6-.2a7.1,7.1,0,0,0,2.91-7.91l308.64-72.45.55,1.43a6.85,6.85,0,0,0,1.6,1.78L1382.75,374.94a7,7,0,0,
    0-3.88-1.22,6.68,6.68,0,0,0-2.32.41M1258,126.88l-28-6.25-14.54-3.25a7.89,7.89,0,0,0-1.08-4.78,7.25,7.25,0,0,0-1.17-1.3l29.71-34.2L1291,21.74a8.35,8.35,0,0,0,2.21,1.36L1273.4,
    96.72l-6.7,24.91a7.44,7.44,0,0,0-2.23-.37,6.55,6.55,0,0,0-3.41.94,6.7,6.7,0,0,0-3.07,4.68m38.1-103.1a6.59,6.59,0,0,0,3.45-.94,6.86,6.86,0,0,0,3.14-5.47L1580.32,53l.14,1.46-252,
    59.18-56.64,13.3a7.9,7.9,0,0,0-.67-1.75,8.14,8.14,0,0,0-3.84-3.21l26.5-98.53a7.7,7.7,0,0,0,2.27.37m-443.93,111L790.43,9.55l.27-.09,1.19-1.14L947.67,144a6.61,6.61,0,0,0-1.07,3.59L888,
    143.39l-26.18-1.89a7.54,7.54,0,0,0-1-3.62,7.25,7.25,0,0,0-6.12-3.57,6.56,6.56,0,0,0-2.47.46m-3.44,3.59L691.58,73,680.67,68.5a7.3,7.3,0,0,0-.62-5.06l74.42-41.06L782.26,7.05a6.48,6.48,0,
    0,0,5.41,3.11,5.9,5.9,0,0,0,2.15-.4L851.56,135l-.34.12a6.05,6.05,0,0,0-2.5,3.26M1020.81-10.09a6.16,6.16,0,0,0,3.28-.89l.91-.87,65.3,69.75L1109,77.83a6.78,6.78,0,0,0-1.06,7L959.05,
    145.69l-.24-.64a7.44,7.44,0,0,0-2.83-2.59l61.66-153.27a7.75,7.75,0,0,0,3.17.72M948.13,143.6,899.23,101,792.35,7.87a6.14,6.14,0,0,0,.94-4.2L973.1-13l39.81-3.68a8.26,8.26,0,0,0,1,2.71,8,
    8,0,0,0,3.09,2.81L986,66.06l-30.61,76.09a7.07,7.07,0,0,0-2.89-.65,5.61,5.61,0,0,0-3,.83,5.74,5.74,0,0,0-1.33,1.27m264.6-32.82-.81-.63,21-41.75,42.55-84.58a6.54,6.54,0,0,0,3,.8,6.07,
    6.07,0,0,0,2-.36l11.37,24.9-.61.21c-3.39,2.08-4.3,6.75-2,10.47a8.52,8.52,0,0,0,1.23,1.37l-37.43,43.1-40.37,46.47m-10.89,2.69-81.25-28.74a7.6,7.6,0,0,
    0-.92-5.2l39.83-25.45L1273-18.39a7.26,7.26,0,0,0,1.9,1.89l-12,23.88L1211.3,109.84a7.51,7.51,0,0,0-3.56-1,6,6,0,0,0-3.18.86,6.43,6.43,0,0,0-2.72,3.73M443.56-26.86a5.55,5.55,0,0,0,
    2.39-.5l73.37,135.51-.07,0c-3.16,1.93-4,6.29-1.88,9.75l.85,1-7.42,7.51-63.56,64.39a7.61,7.61,0,0,0-4.32-2.17l.17-87.72.25-127.74h.22m-8.11,222.32-150.62-3.79a7.08,7.08,0,0,0-1-3,7.56,
    7.56,0,0,0-1.38-1.54L439.59-28.13a6.72,6.72,0,0,0,3.1,1.21l-.42,215.46h-.4a6.23,6.23,0,0,0-3.33.83,6.82,6.82,0,0,0-3.09,6.1m-160.81-9L203.23,98.71,163.65,50a6.18,6.18,0,0,0,
    1.57-6.15l205.83-57,66.16-18.33.49,1.27a7.23,7.23,0,0,0,1.4,1.56l-34.31,47L282,186.61a6.73,6.73,0,0,0-3.93-1.36,5.69,5.69,0,0,0-3,.83l-.43.41m254.59-74.38-.44-1.14a7.78,7.78,0,0,
    0-2.45-2.43L601.93-45.73a7.46,7.46,0,0,0,3.49.92,6.32,6.32,0,0,0,3-.71l62.06,105.8a6.53,6.53,0,0,0-2.36,7.53l-138.87,44.3m-9.32-4.17L446.56-27.57h0a6.2,6.2,0,0,0,
    2.72-6.24L597.73-51.16a8.25,8.25,0,0,0,1,2.54A8.23,8.23,0,0,0,601.32-46L572.46,12.88l-46.73,95.35a6.81,6.81,0,0,0-3.22-.84,6.11,6.11,0,0,0-2.6.55M679.77,62.78a7.63,7.63,0,0,
    0-1.39-1.54L770-63.49a7,7,0,0,0,4.21,1.43h.47l8.59,46.31L785.8-2.34a5.4,5.4,0,0,0-1.92.65c-2.65,1.62-3.38,5.13-1.9,8.1L750.53,23.76l-70.76,39M786.44-2.42,775.37-62.16a6,6,0,0,0,
    2.18-.74,6.31,6.31,0,0,0,2.9-4.48L951.36-31.65l61.49,12.85v1.48L923.1-9,793.21,3a7.14,7.14,0,0,0-.84-2.2,6.62,6.62,0,0,0-5.56-3.22h-.37M671,60,609-45.79a7,7,0,0,0,
    3-6.9L767.13-68.11a7.78,7.78,0,0,0,1,2.45A7.62,7.62,0,0,0,769.56-64L677.9,60.72a6.74,6.74,0,0,0-4-1.38A6.21,6.21,0,0,0,671,60m621.5-51-11.36-24.9.49-.17c3-1.81,3.78-5.95,
    1.78-9.23l-.53-.59,52.94-47.21,29.63-26.42.8.89L1299,9.78a7.28,7.28,0,0,0-4-1.25,7,7,0,0,0-2.42.43m78.18-106.08a5.89,5.89,0,0,0,3.1-.85,6.24,6.24,0,0,0,2.85-4.2l14.28,
    3.41L1419.15-92a7.26,7.26,0,0,0,1,4.52l.36.4L1300.66,11.36l-1.11-1.24,67.32-108.44a7.12,7.12,0,0,0,3.84,1.2M782-126.53a6.29,6.29,0,0,0,3.31-.87,6.63,6.63,0,0,0,2.54-3.15l225.35,
    110-.35,1.12-232.4-48.6a7.52,7.52,0,0,0-1-4.51A7.61,7.61,0,0,0,774.86-76l5.79-50.65a10.26,10.26,0,0,0,1.35.12M611.87-53.37a8.27,8.27,0,0,0-1-2.66l-.76-.85,17.38-16.47,93.14-88.26a6.67,
    6.67,0,0,0,4.7,2.09,5.7,5.7,0,0,0,2.25-.43l12.76,25.29,29.87,59.21-.26.09A6.59,6.59,0,0,0,767-68.8l-131,13-24.12,2.4M770.8-75.66l-42.63-84.5.23-.07a5.69,5.69,0,0,0,2-2.31l44,24.92a8,8,
    0,0,0,.58,7.21,8.24,8.24,0,0,0,5,3.7L774.21-76a6.62,6.62,0,0,0-1-.09,6.41,6.41,0,0,0-2.42.48m562.63-84.27a6.5,6.5,0,0,0,3-.72l14.31,24.33,15.42,26.23a6.88,6.88,0,0,0-1.69,
    9.4l.55.61-32.29,28.8-50.29,44.83a7.05,7.05,0,0,0-1.84-1.45l49.92-132.66a7.66,7.66,0,0,0,2.91.63m33.3,49.55L1337-160.93a6.14,6.14,0,0,0,1.49-1.43l81.58,67.42a6.57,6.57,0,0,0-.92,
    2.26l-42.49-10.18a7.4,7.4,0,0,0-1-4.65,7.2,7.2,0,0,0-6.05-3.54,6.13,6.13,0,0,0-2.86.67M1109.42,77.39l-84-89.68a7.58,7.58,0,0,0,.64-9,8.4,8.4,0,0,0-2-2.25l36.62-59.59,51.88-84.4a7.15,
    7.15,0,0,0,2.84,1.05l-1.71,242.38h-.39a5.63,5.63,0,0,0-3.08.77l-.82.78m7.07-243.85a5.82,5.82,0,0,0,3.14-.78l1.17-1.13,152,141.91a6.81,6.81,0,0,0-.27,7.49L1119.26,79a7.23,7.23,0,0,
    0-4.89-3.06l1.71-242.38h.41m156.8,139.55-152-141.91a6.65,6.65,0,0,0,1.27-4.14l184,5.06,18.94.53a8.31,8.31,0,0,0,1.12,3.59,8.24,8.24,0,0,0,3.24,2.9l-47,125.05L1280-28.21a7,7,0,0,
    0-2.66-.57,5.49,5.49,0,0,0-2.92.79l-1.12,1.08m-587.79-156a6.19,6.19,0,0,0,3.3-.9,6.41,6.41,0,0,0,2.23-2.43l14,8.47,14.08,8.56a6.83,6.83,0,0,0,.45,6.35l.64.72L609.63-57.39l-.94-1,
    4-6.85,68.83-118.86a7.9,7.9,0,0,0,4,1.2M449.18-34.49a7.5,7.5,0,0,0-.77-2L679.1-186.32a8.22,8.22,0,0,0,1.79,1.92L608.07-58.7a7.85,7.85,0,0,0-4-1.21,6.22,6.22,0,0,0-3.33.91,7.06,7.06,0,
    0,0-3.11,7.16L449.18-34.49M165,43.24l-.08-.2L678.53-187.24l.14.37L448-37.07a7,7,0,0,0-5.55-3,5.62,5.62,0,0,0-3,.81,6.28,6.28,0,0,0-2.5,7.16L230.78,25,165,
    43.24m848.48-64.45L788.1-131.16a8.08,8.08,0,0,0-.76-6.78l-.35-.39,39.71-31.41,72.63-57.44a7,7,0,0,0,5.3,2.62,6.06,6.06,0,0,0,2.53-.54L1016-24.32l-.08,0a6.49,6.49,0,0,0-2.5,
    3.08m-238.79-117L745-155.06l-14.28-8.08a6.72,6.72,0,0,0,0-4.7l91.91-33.49,75.62-27.56.32.85.31.35L786.52-138.85a8.11,8.11,0,0,0-6.08-3,6.46,6.46,0,0,0-3.41.94,6.62,6.62,0,0,0-2.37,
    2.72m242,113.7L959.8-129.37l-52-95.94.05,0a6.15,6.15,0,0,0,2.75-4L1109.07-175a7.59,7.59,0,0,0,1,5,8.09,8.09,0,0,0,1.88,2.1l-44.08,71.72-44.43,72.27a7.41,7.41,0,0,0-4-1.23,6.86,6.86,0,
    0,0-2.86.62M719.31-169.81l-28-17a7.44,7.44,0,0,0,.55-4.56l206-38.49.13.35-167.52,61-.31-.81a7,7,0,0,0-5.84-3.44,5.74,5.74,0,0,0-3,.83,5.79,5.79,0,0,0-2,2.11m402.83-70a5.72,5.72,0,0,0,
    3-.77,6.09,6.09,0,0,0,2.52-3.43l119.71,44.86,78.25,29.34a8.05,8.05,0,0,0-.09,1.78l-203-5.59a7.65,7.65,0,0,0-1-3.3,7.49,7.49,0,0,0-4.83-3.46l2.45-32.32,2.07-27.17c.32,0,.64.06,1,
    .06m-13,64.19-46.41-12.7L910.66-230a7.49,7.49,0,0,0,0-1.57l204.12-14.41a7.69,7.69,0,0,0,1,2.6,7.4,7.4,0,0,0,4.74,3.39l-4.52,59.5a7.91,7.91,0,0,0-1-.07,5.7,5.7,0,0,0-3,.79,6.34,6.34,0,
    0,0-2.83,4.09m216.73,5.2L1279.11-188l-151.2-56.67a7.2,7.2,0,0,0-.1-3.32l161.57-39.55.56,1.46a6.91,6.91,0,0,0,5.81,3.38,6.43,6.43,0,0,0,1.24-.12l33.23,108.05a6.68,6.68,0,0,0-1.56.53,
    6.63,6.63,0,0,0-2.78,3.77M910.64-232.21a8.24,8.24,0,0,0-.75-2l73.52-40.32,155.81-85.45a7.62,7.62,0,0,0,3.93,3.16l-20.77,103.25a7.51,7.51,0,0,0-1.63-.21,5.93,5.93,0,0,0-3.14.86,6.43,
    6.43,0,0,0-2.85,6.26L1042-241.48l-131.36,9.27m234.82-124.15a5.82,5.82,0,0,0,3.15-.86,6,6,0,0,0,2.32-2.82l138.35,68.11a6.87,6.87,0,0,0-.15,3.77l-50.5,12.36-111.07,27.19a7.28,7.28,0,0,
    0-.59-1.55,7.55,7.55,0,0,0-3.94-3.16l3.08-15.31,17.69-87.94a7.26,7.26,0,0,0,1.66.21m26-122.72-.76.26-24.65,108.58a6.84,6.84,0,0,0-1.79-.25,6.23,6.23,0,0,0-3.23.88c-2.93,1.79-3.74,
    5.71-2.08,9L909.61-234.82a7.35,7.35,0,0,0-1.17-1.31l174.22-212.08-1.25.44L908-236.65a7.1,7.1,0,0,0-4.46-1.7,5.87,5.87,0,0,0-3.12.87,6.51,6.51,0,0,0-2.8,6.94L691.58-192a8,8,0,0,0-.79-2,
    7.9,7.9,0,0,0-6.6-3.89,6.6,6.6,0,0,0-3.48,1c-3,1.81-3.88,5.7-2.43,9.13L164.64,42.39l-.15-.4a6.86,6.86,0,0,0-5.72-3.36,5.74,5.74,0,0,0-3,.82c-2.87,1.75-3.65,5.73-1.71,8.89a7,7,0,0,0,
    2.24,2.22L7.35,360.41a7.75,7.75,0,0,0-3.59-.94,6.15,6.15,0,0,0-3.26.88,7.13,7.13,0,0,0-2.76,8.33l-50.06,15.05.23.65L-2,369.33l.52,1.36.86.95-41.58,41.14.26.73L-.17,372.16a7.94,7.94,0,
    0,0,3.39,2.14l-8,58.25a8,8,0,0,0-1.37-.14,5.89,5.89,0,0,0-3.15.84c-3.19,1.94-4,6.34-1.92,9.85l-16.58,11.18.24.68,16.8-11.33a7.5,7.5,0,0,0,5.93,3.2,6.55,6.55,0,0,0,1-.07l5.11,19.48L27,
    564.31a6,6,0,0,0-1.74.59,6.61,6.61,0,0,0-3,6.11l-9.5.11.23.67,9.27-.11a7.91,7.91,0,0,0,1.05,3.12A7.69,7.69,0,0,0,25,576.59l-6.89,9.69.28.79,7.11-10a7.38,7.38,0,0,0,4.28,1.47,6.33,6.33,
    0,0,0,3.31-.91l.78-.76,26,28.49,31.85,35a6.9,6.9,0,0,0-1.36,6.82l-46,14.52.23.66,46-14.54L91,649a7.67,7.67,0,0,0,3.33,2.88L68.51,731.21l.37,1L95,652.19a7.56,7.56,0,0,0,2.52.48,6.07,
    6.07,0,0,0,3.17-.87,6.14,6.14,0,0,0,2-2.11l73.81,47.88L221.82,727a6.55,6.55,0,0,0-.61,3.37L73.12,738a7.65,7.65,0,0,0-1-2.8,7.94,7.94,0,0,0-3.25-3l.22.62.17.5.13.36.56,1.63,1,2.76,0,
    .15,1.13,3.24v0l.09.23.19.57.08.22,0-.06L255.31,846.1a7.1,7.1,0,0,0,.53,6.37,7.74,7.74,0,0,0,1.82,2L244,877l-43.71,72a7.06,7.06,0,0,0-3.76-1.16,6.06,6.06,0,0,0-2.89.71L77,755.6l1,2.88,
    115.1,190.37a5.93,5.93,0,0,0-1.83,2L132,913.69l.34,1L191,951.43a7,7,0,0,0-.18,5.31l-39.05,14,.23.65,39.07-14,.36.93a7.54,7.54,0,0,0,3.77,3.1l-2,8.19-17,71.37.4,1.18,19.19-80.44a6.76,
    6.76,0,0,0,1.84.26,6.1,6.1,0,0,0,3.25-.89l.15-.14,33.7,47.17,19.7,27.56a7,7,0,0,0-2.35,6.82l-70.82,13,.23.66,70.84-13a8.55,8.55,0,0,0,.59,1.54l-51.17,29.65a6.81,6.81,0,0,0-5.57-3.18,
    5.6,5.6,0,0,0-3,.82,5.07,5.07,0,0,0-1.31,1.26l-6.36-5.32.41,1.16,5.5,4.61a6,6,0,0,0-.72,1.78l-2.86-.88.26.78,2.43.75a6.92,6.92,0,0,0,4.5,7.59l-1.53,7.18.42,1.21,1.74-8.16a6.45,6.45,0,
    0,0,1.57.21,5.52,5.52,0,0,0,2.91-.79,5.75,5.75,0,0,0,2.53-3.62l.11,0,93.06,26.71a7.66,7.66,0,0,0,1,5l-78.22,51.67.24.67,78.42-51.8a7.29,7.29,0,0,0,5.86,3.14h.11l26.29,188.52a5.93,5.93,
    0,0,0-2.47.85,6.09,6.09,0,0,0-1.79,1.71l-76.27-55.7.37,1.07,75.6,55.21a7,7,0,0,0-.36,5.75l-48,17.27.23.66,48.05-17.28.35.91a7.57,7.57,0,0,0,4,3.18L308.4,1421.11l.43,
    1.23h0l21.06-104.83a6.74,6.74,0,0,0,1.66.21,5.93,5.93,0,0,0,3.15-.85l.34-.33,61.16,79.36,42,54.49a5.83,5.83,0,0,0-1.92,3.47l-122.76-24a7.19,7.19,0,0,0-4.55-7.09l0,.1.09.27,1.84,
    5.29.12.33,1.08,3.1.16.48.24.69a6.23,6.23,0,0,0,.89-2.52l122.85,24.08a6.65,6.65,0,0,0,3.15,6.27l-35.13,71.09-9.2,18.62a7.15,7.15,0,0,0-3.36-.89,5.65,5.65,0,0,0-3,.82L315,1440l.83,2.39,
    52.43,78.52,20,30a6.59,6.59,0,0,0-2.41,6.55l-28.31,4.94.23.65,28.33-4.94a7.55,7.55,0,0,0,.75,2l.18.2-24,17.87.24.7,24.23-18a8,8,0,0,0,1.6,1.58l-19,36.24.31.88,19.26-36.81a7.16,7.16,0,
    0,0,3.5,1,5.67,5.67,0,0,0,3-.83c2.93-1.79,3.74-5.7,2.08-9l259.23-143.18.24.27L396.54,1614.47l2-.71L658.24,1411.4a7.53,7.53,0,0,0,5.67,2.85,6.11,6.11,0,0,0,3.18-.88,6.76,6.76,0,0,0,
    2.62-7.89L935.19,1326l.47,1.21a7.32,7.32,0,0,0,6.08,3.59,6.12,6.12,0,0,0,3.19-.88c3.06-1.87,3.87-6.1,1.83-9.46a7.62,7.62,0,0,0-2.49-2.41l96.83-207.94a7.55,7.55,0,0,0,3.31.84,5.9,5.9,0,
    0,0,3.11-.85,6.75,6.75,0,0,0,2.71-7.64l270.42-69.89.51,1.33a6.77,6.77,0,0,0,5.68,3.35,5.62,5.62,0,0,0,3-.82c2.87-1.74,3.64-5.71,1.7-8.85a6.43,6.43,0,0,0-1.2-1.34L1491.71,821a7,7,0,0,0,
    4.34,1.61,6,6,0,0,0,3.15-.88,6.48,6.48,0,0,0,2.65-7.35L1971,694.72a7.24,7.24,0,0,0,.59,1.52,7.54,7.54,0,0,0,6.3,3.71,6.18,6.18,0,0,0,3.29-.9c3.18-1.94,4-6.33,1.89-9.8a7.54,7.54,0,0,
    0-6.3-3.71,5.83,5.83,0,0,0-5.58,3.64l-585.3-305.13a7.64,7.64,0,0,0-.66-6.64,8.35,8.35,0,0,0-1.89-2.11L1583.42,58.66a6.53,6.53,0,0,0,3.52,1.11,5.35,5.35,0,0,0,2.83-.78c2.82-1.71,
    3.58-5.62,1.69-8.7a6.71,6.71,0,0,0-5.61-3.3,5.43,5.43,0,0,0-5.52,5.29L1302.68,16.7a8.22,8.22,0,0,0-1.12-4.33l-.44-.5L1421-86.55a7.12,7.12,0,0,0,5.26,2.56,5.67,5.67,0,0,0,3-.84c3-1.84,
    3.8-6,1.78-9.29a7.15,7.15,0,0,0-6-3.53,5.76,5.76,0,0,0-3.12.87,5.41,5.41,0,0,0-1.42,1.36l-81.58-67.41a7.86,7.86,0,0,0-.07-8.41,7.88,7.88,0,0,0-6.61-3.85,7.16,7.16,0,0,
    0-1.46.15l-33.22-108,1.32-.45c2.95-1.8,3.75-5.89,1.76-9.14a7,7,0,0,0-5.87-3.46,5.87,5.87,0,0,0-3.08.85,5.69,5.69,0,0,0-2.18,2.65l-138.35-68.11a7.4,7.4,0,0,0-.7-6.21,7.6,7.6,0,0,
    0-3.82-3.1l24.8-109.12"
        transform="translate(52.32 479.08)"></path>
</svg>